<svg id="Layer_1" data-name="Layer 1" xmlns="http://www.w3.org/2000/svg" xmlns:xlink="http://www.w3.org/1999/xlink" viewBox="0 0 366.66 218.11"><defs><style>.cls-1{fill:none;}.cls-2{clip-path:url(#clip-path);}.cls-3{fill:#063;}.cls-4{fill:#e5007e;}</style><clipPath id="clip-path" transform="translate(-77.42 -16.55)"><rect class="cls-1" width="482.45" height="245.49"/></clipPath></defs><title>philfriendstour_logo</title><g class="cls-2"><path class="cls-3" d="M168,234.26l-1.33-1.73a9.77,9.77,0,0,1-5.85,2.14c-4,0-7.09-2-7.09-6.35,0-3.1,2.44-5.14,5.23-6.16-0.9-1.36-2-3.25-2-4.8,0-3.25,2.1-5,5.63-5,2.54,0,5,1.24,5,4.46s-2.85,5-5,5.94l4.4,6a13.44,13.44,0,0,0,1.7-4.49c0.81,0.28,1.55.74,2.32,0.93a15.31,15.31,0,0,1-2.69,5.36l2.69,3.68h-3Zm-7.9-10.56c-1.73.78-3.5,2.26-3.5,4.61,0,3.59,2.88,4.12,4.8,4.12a5.6,5.6,0,0,0,3.93-1.58Zm4.77-6.66c0-1.86-1.43-2.42-2.73-2.42a2.26,2.26,0,0,0-2.35,2.36,6.5,6.5,0,0,0,1.64,4.18c2-1.11,3.44-2,3.44-4.12" transform="translate(-77.42 -16.55)"/><polygon class="cls-3" points="110.06 217.71 110.06 196.25 123.5 196.25 123.5 198.42 112.73 198.42 112.73 205.48 121.33 205.48 121.33 207.62 112.73 207.62 112.73 217.71 110.06 217.71"/><path class="cls-3" d="M219.73,234.26l-5.08-9.6h-4.92v9.6h-2.66V212.81H215c4.74,0,6.63,2.57,6.63,5.79a5.68,5.68,0,0,1-4.37,5.67l5.54,10h-3.07Zm-5.32-11.7c2.29,0,4.49-.93,4.49-3.9,0-2.63-1.39-3.68-4.34-3.68h-4.83v7.59h4.68Z" transform="translate(-77.42 -16.55)"/><rect class="cls-3" x="152.07" y="196.26" width="2.66" height="21.46"/><polygon class="cls-3" points="163.16 217.71 163.16 196.25 176.29 196.25 176.29 198.42 165.82 198.42 165.82 205.48 174.43 205.48 174.43 207.62 165.82 207.62 165.82 215.55 176.6 215.55 176.6 217.71 163.16 217.71"/><polygon class="cls-3" points="194.41 217.71 185.65 199.72 185.59 199.72 185.59 217.71 183.17 217.71 183.17 196.25 186.42 196.25 195.09 213.72 195.22 213.72 195.22 196.25 197.66 196.25 197.66 217.71 194.41 217.71"/><path class="cls-3" d="M283.24,234.26V212.81h6c6.16,0,9.69,4.43,9.69,10.74,0,5.89-3.34,10.71-9.69,10.71h-6Zm6-2.17c3.9,0,7-2.72,7-8.55,0-5.66-3.13-8.58-7-8.58H285.9V232.1h3.35Z" transform="translate(-77.42 -16.55)"/><path class="cls-3" d="M316.91,218.6a5.07,5.07,0,0,0-4.77-4c-2.54,0-4.18,1.42-4.18,3.47,0,5.82,12.11,2.69,12.11,10,0,4.46-2.73,6.66-7.37,6.66-4.46,0-6.75-2.72-8.08-6.16l2.85-.71c0.81,2.66,2.6,4.71,5.51,4.71s4.55-1.73,4.55-3.81c0-6.19-12.14-2.38-12.14-10.31,0-3.07,2.14-6,7.12-6,4.06,0,6.22,3,7,5.79Z" transform="translate(-77.42 -16.55)"/><path class="cls-3" d="M77.42,156.13V16.55h44.33c10.94,0,16.51,3,22.38,9.48l11.19,12.21c4.34,4.34,6.22,10.75,6.22,19.62V92.19c0,17.17-7.36,25.65-24.71,25.65H123.26v52.81H93.08Zm44.33-56.59c15.09,0,21.5-7.36,21.5-22.45V42.77c0-15.09-6.41-22.45-21.5-22.45H81.19v132H105V99.55h16.79ZM105,77.67V42.2h9.24c3.39,0,6,.75,6,5.47V72.19c0,4.72-2.64,5.47-6,5.47H105Z" transform="translate(-77.42 -16.55)"/><path class="cls-3" d="M169.85,156.13V16.55h31.31l10.56,11.69V16.55H243l14.52,15.65V170.66H227.38L215.69,159v11.7H185.51ZM215.5,71.25H197.39V20.32H173.62v132h23.77V93.13H215.5v59.23h23.77v-132H215.5V71.25Z" transform="translate(-77.42 -16.55)"/><path class="cls-3" d="M317.17,32.21V170.66H287l-15.65-14.52V16.55h31.31Zm-18.3-11.88H275.11v132h23.77v-132Z" transform="translate(-77.42 -16.55)"/><path class="cls-3" d="M330.94,16.55h31.31l14.52,15.65v94.88h12.64l14.52,15.66v27.92H346.59l-15.65-14.52V16.55Zm3.77,135.81h50.93v-21.5H358.48V20.32H334.71v132Z" transform="translate(-77.42 -16.55)"/><path class="cls-4" d="M181.12,190.85a18.68,18.68,0,0,1-.39-2.49c0-.08-0.07-1-0.1-1.37s0-3.28,0-3.93a22.37,22.37,0,0,0,.09-2.47c0.07-1.15.43-4.75,0.37-5.2,0.16-.62,1.4-5.74,1.48-6.33,0-.2.09-1.91,0.17-2.22,0.24-.93.88-4.25,1-4.67,0-.2,1.12-3.29,1.52-4.56,0.6-1.52,1.83-5,1.8-5.13a14.92,14.92,0,0,1,1.52-2.4c0-.2.57-1.61,0.6-1.8a25.58,25.58,0,0,1,1.76-3c0.11-.23,1.25-1.56,1.47-2,0.47-.54,2.75-3.2,3.19-3.54,0.14-.14.81-0.65,1.08-0.94s1.37-.94,1.45-1,1.48-.6,1.9-0.75c0.59-.2,2-0.58,2-0.61a10.76,10.76,0,0,1,1.32,0,15.93,15.93,0,0,1,2,.34,6.23,6.23,0,0,1,2.09.88l1.13,0.55a5.88,5.88,0,0,1,1.17-.4,2.76,2.76,0,0,1,1,.13,6.9,6.9,0,0,1,1,.69,18.61,18.61,0,0,1,2.15,2.17l2.43,7a5.66,5.66,0,0,0-.16.62,3.6,3.6,0,0,0,.32.92c-0.08,0-.07.87-0.16,0.9-0.08.31,0.3,2.24,0.28,2.44s0.33,2.61.43,3.42c0.06,0.17,0,1.21.1,1.38a27.78,27.78,0,0,0,0,4c0,0.2.22,1.71,0.19,1.91a20.19,20.19,0,0,1,.06,2.89c0.06,0.45-.47,3.26-0.52,3.65,0,0.08-.07.87,0,1,0,0.28-.43,1.46-0.49,1.86,0,0.08-.15,1.74-0.09,1.91-0.05.39-.62,2.84-0.67,3.23a10.41,10.41,0,0,0-.1,1.07l-0.19.53a7.36,7.36,0,0,0-.54,2.25c-0.22.45-1.2,3.32-1.48,3.89a5.62,5.62,0,0,1-.66,1.63c-0.19.54-1.46,2.57-1.65,3.1-0.47.82-2.07,3.53-2.26,3.78s-1.83,2.32-2.24,2.75c-0.22.17-2.31,2.3-3,3.09-0.44.34-1.58,1.39-1.72,1.53A20.82,20.82,0,0,1,199.1,203c-0.08,0-.81.37-1.15,0.49s-1.12.29-1.2,0.32-1,0-1.32,0-0.7-.13-1-0.21a22.31,22.31,0,0,1-2.48-.65,6.81,6.81,0,0,0-1.55-.4c-0.48-.3-2.43-1.32-2.71-1.6a23.7,23.7,0,0,1-2-1.75,18.5,18.5,0,0,0-1.54-2,10.14,10.14,0,0,1-.77-1.14c-0.31-.36-1.15-2.23-1.34-2.54,0-.08-0.46-1.06-0.55-1.31s-0.35-1.29-.35-1.29m10.37,4.22,1.19,0.72c0.08,0,1.15-.21,1.4-0.29,0.42-.14,1.62-0.75,1.79-0.81,0.42-.42,3.05-3.4,3.86-4.33,0.19-.26,2.21-3.39,2.9-4.38,0.14-.42,1.24-2.12,1.46-2.57a2.09,2.09,0,0,0,.27-0.56c0.49-1.58,1.88-5.44,2-5.66s0.32-1.52.35-1.72,0.81-3.38,1-3.71c0-.36.29-1.32,0.21-1.57s0.4-2.39.48-2.7,0.88-4.25,1.07-4.78c0.08-.31.39-3.23,0.44-3.62a8.33,8.33,0,0,0,.35-1.72c0-.2.33-3.4,0.35-4.44a24.56,24.56,0,0,1,0-2.53,1.88,1.88,0,0,0-.09-0.53,2,2,0,0,0-.2-0.31,13.84,13.84,0,0,0-.88-1.2l-0.15-.42a3.74,3.74,0,0,1-.54-0.47,19.89,19.89,0,0,1-.75-2.18,3,3,0,0,0-1.41-.83,0.63,0.63,0,0,0-.51-0.39,2.91,2.91,0,0,0-.84-0.27l-1.09.38-0.92.32a2.66,2.66,0,0,0-1,.91c-0.17.06-1.66,2-2.28,2.66-0.39.51-1.47,2-1.55,2-0.25.37-1.26,2.6-1.6,3-0.52,1.21-2.82,6.51-3.29,7.61-0.08.31-.6,2.08-0.84,2.73-0.08.31-.67,3-0.83,3.85s-1.07,4.78-1.32,5.43a31.27,31.27,0,0,1-.7,3.15,3.18,3.18,0,0,0,0,1c-0.08.31,0.14,2.58,0.09,3,0,0.08-.35,1.43-0.32,1.52l0.35,1a4.15,4.15,0,0,1-.13,1c-0.05.39,0,2.16,0,2.44-0.08.59,0.08,2.69,0.09,3,0.06,0.45.24,2.07,0.33,2.33l0.84,2.43,0.52,1.51" transform="translate(-77.42 -16.55)"/><path class="cls-4" d="M228,182.41c0-.28.31-2.36,0.31-2.64l0.69-9.16,0.11-.79a24.14,24.14,0,0,0-.06-2.61c-0.21-.87-1.11-4.59-1.4-5.43a0.63,0.63,0,0,1,.3-0.48,4.7,4.7,0,0,1,.64-0.31c0.17-.06.7-0.15,0.79-0.18a9.09,9.09,0,0,1,1.29-.07,9.75,9.75,0,0,1,1.71.35,9.3,9.3,0,0,1,2.09.88,5.12,5.12,0,0,1,.74,1.06c0,0.08.57,1.4,0.72,1.82s0.55,1.88.58,2,0.13,1.46.18,1.63c0,0,.12.62,0.18,0.78s0.29,0.56.34,0.73a8,8,0,0,0,.61-0.68,8.86,8.86,0,0,0,.83-1.13l1.68-2.74,0.44-.9,1.63-2.63c0.14-.42,1.63-2.91,2.1-3.72,0.22-.45,2.07-3.81,2.32-4.18,0.36-.59,2.13-3.36,2.51-3.87,0.14-.14,1.14-1.33,1.55-1.76l1.17-1.25c0.28-.28,1.7-1.34,2-1.54a39.46,39.46,0,0,0,4.15-.21,2.32,2.32,0,0,1,.9.16,13.93,13.93,0,0,1,1.47.71l1.3,1.33a4.88,4.88,0,0,1,.8.95c0,0.08.55,1.31,0.69,1.73,0.2,0.59.58,2,.61,2,0.09,0.25.39,2.21,0.56,2.72a5.17,5.17,0,0,1,0,1.32l0.18,1.63,0,7.13,0.93,2.69a3.17,3.17,0,0,0,.6.64l0.76-.26a5.7,5.7,0,0,1,1.53-1l1.23-.8c0.17-.06.81-0.65,0.89-0.68a4.51,4.51,0,0,1,1.22-1.08c0.27-.57,1.83-2.32,2.08-2.69,0.33-.68,2.51-3.87,3-4.6,0.25-.37,1.88-3,2-3.33a16.29,16.29,0,0,1,1.77-2.77,64.15,64.15,0,0,1,3.3-7.05,3.39,3.39,0,0,1,.69-1,4.21,4.21,0,0,1,1-.35c0.14-.14,1.14-1,1.2-1.16a9.78,9.78,0,0,1,1.28-.91s0.62,0.16.73,0.22a0.88,0.88,0,0,1,.53.19l0.58,1.68,0.33,2.33a9,9,0,0,1,.08,2.13,7.72,7.72,0,0,1-.44,1.18c-0.05.39-.85,2.45-0.84,2.73s-0.9,2-.93,2.2-0.47,1.1-.55,1.41c-0.44.62-2.89,5.78-3.39,6a1.51,1.51,0,0,0-.08.59c-0.55.57-3.49,4.86-4.51,6.25l-0.75.82a9.5,9.5,0,0,1-1.44,1.81,19.78,19.78,0,0,0-1.89,1.87c-0.64.32-2.56,1.82-3,2.05a9.84,9.84,0,0,1-2,1.14c-0.25.09-2.88,0.62-3.56,0.85a3.06,3.06,0,0,1-1.07-.1,3.39,3.39,0,0,1-1.15-.07l-0.08,0a2.6,2.6,0,0,0-.79-0.1,0.89,0.89,0,0,1-.48-0.3l-0.54-.47a15.78,15.78,0,0,1-1.89-1.13c-0.14-.14-0.37-0.81-0.83-1.59l-0.91-1.28c-0.2-.31-0.83-1.31-0.83-1.31l-0.81-2.35-0.56-2.72c-0.06-.17-0.1-1.37-0.13-1.74v-2.44c0-1.4-.11-5.22-0.2-5.47l-0.17-.5-0.2-.59-1.47,1.73-1.8,2.4c-0.19.25-1.32,2.15-1.54,2.6l-3.39,6.24-0.3.48-3.42,5.87L243,175.91l-3.94,6.81L236.68,187a2.18,2.18,0,0,1-.64.6c-0.08,0-1.14.49-1.48,0.6s-1,.26-1.12.29a22.37,22.37,0,0,1-2.11-1l-1-.86-0.26-.76c-0.09-.25-1.36-1.5-1.42-1.67s-0.32-.64-0.43-1c-0.06-.17-0.21-0.87-0.21-0.87m18.44-24.94,0.34-.11-0.12-.33-0.34.11Zm2.42-2.52c0.42-.14.16-0.9-0.26-0.75s-0.07.87,0.26,0.75m2.4-4.21a0.25,0.25,0,0,0,.42-0.14c0-.2-0.56,0-0.42.14" transform="translate(-77.42 -16.55)"/><path class="cls-4" d="M323.62,152.44c0.08,0,.53-0.37.84-0.57a5,5,0,0,1,.89-0.68c0.13-1,.42-5.31.36-6.32a8.71,8.71,0,0,0,0-1.49l-0.09-6v-4.32l-0.07-1.85,0.07-1.15-0.07-4.29c0.19-.53.37-5.48,0.53-6.1l-0.27-4.32a31.61,31.61,0,0,0-.11-4.94l-0.3-4.4c-1.46.41-4,1.39-4.53,1.56a19.89,19.89,0,0,0-3.1,1.07,10.66,10.66,0,0,1-3.25.93c-0.14.14-1.85,0.64-1.82,0.72a23.19,23.19,0,0,0-2.35.81,4.26,4.26,0,0,1-.51-0.11l-0.42.15a13.69,13.69,0,0,0-1.57.07,3.87,3.87,0,0,0-1.18-.44c0-.08-0.56-0.27-0.43-0.42l-1.57-2.93a10.89,10.89,0,0,1-.27-1.32,9.21,9.21,0,0,1,0-1.21,0.64,0.64,0,0,1,.39-0.51,4.67,4.67,0,0,0,.92-0.6,26.58,26.58,0,0,0,2.52-.87,15.24,15.24,0,0,1,3.24-1.21l0.75-.26a9.75,9.75,0,0,0,3.11-.79c1.51-.52,5.31-2,5.48-2.08l2.46-.76c0.59-.2,3.35-1.44,4-1.56l24.25-8.36a5.43,5.43,0,0,1,2.53,0c0.08,0,1,.49,1.21.52a5.48,5.48,0,0,0,.49,1.15l0.67,1.93a9.6,9.6,0,0,1-.15,2l-1.47,1.17c-0.34.12-2,.89-2.38,1-2.1.72-7.49,2.77-9.73,3.35-1.18.4-6,2.25-7.16,2.65a2.09,2.09,0,0,0-.69.71c-0.06.11,0,1-.07,1.43,0,0.56-.05,3.4-0.07,4.16,0,0.48.18,1.35,0.18,1.63l0.25,5.08c0,1.12.09,6.26,0.07,7.3,0,0.65-.25,5.81-0.41,6.43l0.2,3a13.8,13.8,0,0,1-.07,1.43l0.1,10.1-0.12,1.83a19.77,19.77,0,0,1,.17,2.95c0.06,0.73-.33,4-0.35,4.44a10.29,10.29,0,0,0-.65,2.2c-0.08.31-.63,1.44-0.6,1.52-0.14.42-1.1,2.26-1.26,2.6-0.17.06-.48,0.26-0.56,0.28a4,4,0,0,1-.73.06,9.94,9.94,0,0,1-1.23,0,19.82,19.82,0,0,1-3.2-.3,8,8,0,0,1-2.09-1.16l-0.76-.58L323,155.28Z" transform="translate(-77.42 -16.55)"/><path class="cls-4" d="M346.63,137.75c-0.18-.78-0.65-3-0.62-3.17s0-2,0-2.44,0.2-2.13.28-2.73c0-.2.4-1.83,0.54-2.25s0.59-2.36.65-2.76c0.22-.45.6-1.8,0.65-1.92,0.52-1.21,2.53-5.47,3-6.09a29.92,29.92,0,0,1,2-2.86c0.14-.14,1.44-1.53,1.8-1.84s1-.71,1.06-0.74,1.06-.46,1.48-0.6,1.46-.41,1.54-0.44a4.39,4.39,0,0,1,1.21,0l1,0.49c0.2,0,1.69.54,1.89,0.57,0.26,0.19,1.83,1,2.06,1.07l0.17-.06,0.25-.09c0.14-.14,1.9-1,2-1.17l0.59-.2,0.59-.2a1,1,0,0,1,.56.27,5.31,5.31,0,0,1,.57.56l0.38,1.09,0.43,1.26c0.12,0.34.3,2,.45,2.38-0.06.11,0,2,0,2.44s-0.06,2-.17,2.22c-0.1.79-.44,3.91-0.54,4.41a27,27,0,0,1-.92,3.6,17.16,17.16,0,0,1-1,3c-0.36.87-2.31,4.74-2.78,5.56a28.54,28.54,0,0,1-1.52,2.68,12.35,12.35,0,0,1-.94,1.08c-0.3.48-1.39,1.7-1.44,1.81a18.19,18.19,0,0,1-1.58,1.39c-0.31.2-1.56,0.91-1.79,1.08l-1.09.38-1.18.4a12.83,12.83,0,0,1-1.65.1c-0.42-.14-2.9-1.35-3.58-1.68-0.14-.14-1-1.06-1.19-1.28s-0.94-1.65-1.08-1.79-0.68-.89-0.71-1-1-1.73-1.2-2.12l-0.09-.25Zm6.82,0.18a0.57,0.57,0,0,0,.56.28,7.13,7.13,0,0,0,.95-0.79c0.5-.46,2.22-2.27,2.53-2.47,0.39-.51,1.55-2,1.72-2.37,0.41-.71,2.83-5.67,3.46-7.11,0.11-.23.52-1.49,0.65-1.92a11.36,11.36,0,0,0,.15-1.74c0-.08-0.38-1.37-0.55-1.88-0.12-.33-0.66-1.65-0.75-1.9a1.8,1.8,0,0,0-.79-0.1,6.59,6.59,0,0,0-1.06.74c-0.19.25-1.19,1.44-1.44,1.81-0.53.65-1.91,2.63-2,2.77a44.9,44.9,0,0,0-2.17,4.6,49.08,49.08,0,0,0-1.46,5.57,5,5,0,0,1-.19.82c0,0.56.14,2.58,0.17,2.94l0,0.36a1.85,1.85,0,0,0,.23.39" transform="translate(-77.42 -16.55)"/><path class="cls-4" d="M379.07,132.2a9.11,9.11,0,0,1-.1-1.65c-0.12-.34-0.11-2.5-0.25-2.92,0-.08,0-1.12,0-1.12,0.05-.39-0.2-3-0.2-3.31s-0.08-2.41-.05-2.61c0-.48-0.2-3.31-0.18-4.07s-0.17-2.66-.17-2.94c-0.06-.73-0.23-3.11-0.29-3.28-0.09-.53-0.47-2.46-0.59-2.8l-1.16-3.36c-0.06-.17.22-0.73,0.16-0.9a0.9,0.9,0,0,1,.3-0.48c0.17-.06,1.06-0.46,1.31-0.55s1.29-.35,1.29-0.35a4.43,4.43,0,0,1,1.21,0c0.31,0.08,1.75.43,2,.54a2.17,2.17,0,0,1,.6.64c0.2,0.31.91,1.28,1,1.45l0.78,2.27,0.75,2.18c0.06,0.17.18,1.63,0.24,2.08s0.26,2.92.29,3.28,0.07,3.73.13,4.18a10.32,10.32,0,0,0,.18,1.63l0.06,0.17,0.09,0.25c0.25-.65,1.68-3.58,2-4.06,0-.28.9-2.28,1.12-3s2.07-6.53,2.51-7.15a2.15,2.15,0,0,0,.27-0.56c0.11-.23,1-2.59,1.15-2.93,0.3-.76,1.51-3.24,1.7-3.5A9,9,0,0,1,396.38,98c0.08,0,1.43-.21,2-0.33,0.11,0.06,1,0,1.23,0a6.43,6.43,0,0,1,.9.16,6.91,6.91,0,0,1,1,.49c0.14,0.14,1.08.94,1.25,1.17a11.52,11.52,0,0,1,.88,1.48l0.23,0.67,0.26,0.75c0.15,1.26.63,7,.79,8.27,0,0.28.14,2.58,0.14,2.86,0,0.56.23,2.83,0.29,3.28s0.27,1.88.3,2,0.32,1.2.47,1.62,0.55,1.31.58,1.4a2.18,2.18,0,0,0,.6.64c0.37,0.25,2.26,1.1,2.4,1.24a1.93,1.93,0,0,1,.32.64l0.17,0.5a12.71,12.71,0,0,1,.3,2,8.45,8.45,0,0,1-.13,1,2.21,2.21,0,0,1-.64.6s-0.64.32-.89,0.4-1,.23-1,0.23a3.14,3.14,0,0,1-.87-0.08,8,8,0,0,1-1-.58c-0.23-.11-1.36-0.94-1.58-1.05s-1.7-1.39-1.84-1.52-1.08-1.22-1.39-1.59a24.63,24.63,0,0,1-1.54-2l-0.87-2.52-1-2.77a8.51,8.51,0,0,1-.18-1.63,2.22,2.22,0,0,0-.18-0.78l-0.26-.76c-0.22.45-1,2.51-1.15,2.93-0.25.65-2.13,6.08-2.37,6.73-0.08.31-1.29,2.79-1.12,3.3,0,0.08-.47.54-0.44,0.62-0.28.56-2.3,5.3-2.55,5.95a16,16,0,0,0-.8,1.5,19.58,19.58,0,0,1-1.33,2.15,7.7,7.7,0,0,1-1.45,1,9.79,9.79,0,0,1-1.57.07,6.87,6.87,0,0,1-1-.5c-0.25-.19-2.35-2.19-2.64-2.47,0-.08-0.93-0.8-1.08-0.94s-0.29-.56-0.37-0.81-0.23-1-.26-1" transform="translate(-77.42 -16.55)"/><path class="cls-4" d="M420.86,90.29a5.27,5.27,0,0,1,.55,1.88,19.53,19.53,0,0,1,.37,3.25,6.53,6.53,0,0,1,.24,1.51l-0.08,0a0.67,0.67,0,0,0-.05.39l-0.05.39,0,1.52,0.14-.14a0.51,0.51,0,0,0,.14.42l0.36-.59,0.72-.9a3.15,3.15,0,0,1,.81-0.66l0.08,0,1.24-1.84a1,1,0,0,0,.3-0.48,1.33,1.33,0,0,1,.28-0.28,4.6,4.6,0,0,1,.72-0.9l0.64-.6a1.57,1.57,0,0,0,.47-0.82,23.76,23.76,0,0,0,2.75-2.92,5.41,5.41,0,0,0,1.2-.88l0.47-.54a9.47,9.47,0,0,1,1.08-1.22,1.86,1.86,0,0,0,.78-0.74l-0.08,0,0.33-.4,1.39-.86a11.89,11.89,0,0,1,2.12-.92l0.73-.06a7.19,7.19,0,0,0,.9-0.12,7.88,7.88,0,0,0,1.32-.26,8,8,0,0,0,1.8.6,9.22,9.22,0,0,1,.71,1,0.69,0.69,0,0,0,.37.25,5.25,5.25,0,0,1,.32.64l0.2,0.31s0,0.56,0,1c-0.18,1.94-2.8,3-2.8,3l-1.36,1.22a11.6,11.6,0,0,1-.83.85L439,92.41l-1,.91,0.08,0-3,3-0.25.37a2.19,2.19,0,0,1-.08.87,40,40,0,0,0-5.16,5.44l-1.44,2.37c-0.5.74-.66,1.07-1.27,2a16.19,16.19,0,0,1-1.67,3.86l-0.08.59a0.38,0.38,0,0,1,.14.42c-0.24.93-2.1,8.61-2.21,9.4a9.74,9.74,0,0,0-.35,1.71l-0.84.29a3.6,3.6,0,0,1-.45.34l-0.75.26a7.1,7.1,0,0,0-.7.15l0.08,0a6.66,6.66,0,0,1-1.49,0l0.08,0a2.14,2.14,0,0,1-.85-0.27l-0.59-.08a2.93,2.93,0,0,1-.85-0.83c-0.25-.19-0.57-0.28-0.82-0.47l-1.55-1,0.14-.14c-0.06-.17-0.2-0.31-0.26-0.48s0.06-2,0-2.24c0,0-.06-0.45-0.15-1a6.42,6.42,0,0,0-.18-1.07L413.4,113l0.17-4.94,0.06,0.17-0.06-.45c-0.12-.62.43-4.19-0.1-4.38l0.09-2.19-0.15-.7-0.13-1.46-0.07-4c0-.37-0.35-4-0.67-5.49a0.57,0.57,0,0,0,0-.56,16.43,16.43,0,0,0-.67-2.21c0-.08-0.06-0.45-0.09-0.53l-0.21-.87c-1-1.82.4-2.39,0.73-2.51,1.17-.4,1.6-0.55,1.62-0.75a1.91,1.91,0,0,0,.65,0,1.75,1.75,0,0,1,1.18.16c0.31,0.08,2.16.29,2.16,0.29a7.34,7.34,0,0,1,.51.67,2.33,2.33,0,0,1,.29.56,2.09,2.09,0,0,1,.45.5l0.17,0.22L419.6,85l0.4,0.33,0.32,0.92c0.2,0.31.4,1.17,0.63,1.57l-0.1,1.35v1.12Z" transform="translate(-77.42 -16.55)"/></g></svg>