<?xml version="1.0" encoding="UTF-8" standalone="no"?>
<!DOCTYPE svg  PUBLIC '-//W3C//DTD SVG 1.1//EN'  'http://www.w3.org/Graphics/SVG/1.1/DTD/svg11.dtd'>
<svg xmlns="http://www.w3.org/2000/svg">
<defs>
<font id="MontefioreShadow-Regular" horiz-adv-x="376">
<font-face underline-position="-50" font-weight="700" descent="-200" panose-1="2 0 8 6 0 0 0 2 0 3" units-per-em="1000" unicode-range="U+0020-25CA" font-stretch="condensed" bbox="-109 -333 782 946" x-height="494" underline-thickness="50" font-family="MontefioreShadow" ascent="800" cap-height="720"/>
<missing-glyph horiz-adv-x="1000"/>
<glyph glyph-name=".notdef" horiz-adv-x="1000"/>
<glyph glyph-name=".null" horiz-adv-x="0"/>
<glyph glyph-name="nonmarkingreturn" horiz-adv-x="333"/>
<glyph glyph-name="space" horiz-adv-x="250" unicode=" "/>
<glyph glyph-name="exclam" horiz-adv-x="217" unicode="!" d="M52 203l-22 517h157v-6l77 -77l-22 -511h-53l74 -74v-149h-149l-77 77h-6v155h95l-68 68h-6zM51 115v-115h115v115h-115zM51 700l20 -477h75l20 477h-115z"/>
<glyph glyph-name="quotedbl" horiz-adv-x="363" unicode='&quot;' d="M234 435l-4 12l-23 -89h-51l-77 77h-5l-40 149v136h135v-6l25 -25v31h135v-6l77 -77v-132l-39 -147h-51l-77 77h-5zM54 585l35 -130h25l35 130v115h-95v-115zM214 585l35 -130h25l35 130v115h-95v-115z"/>
<glyph glyph-name="numbersign" horiz-adv-x="518" unicode="#" d="M15 360v134h103l20 82l33 144h139l-2 -6l50 -50l13 56h139l-2 -6l78 -77l-38 -162l64 -64v-128h-100l58 -58v-128h-108q-7 -34 -23.5 -104.5t-20.5 -89.5h-133l-55 55l-12 -55h-133l-77 77h-7l34 147l-46 47h-6v134h90l-52 52h-6zM35 474v-94h79l-21 -92h-90v-94h68 l-44 -194h97l44 194h103l-44 -194h97l44 194h105v94h-83l21 92h104v94h-83l52 226h-96l-53 -226h-103l52 226h-96l-53 -226h-100zM190 288l21 92h103l-21 -92h-103z"/>
<glyph glyph-name="dollar" horiz-adv-x="384" unicode="$" d="M324 750v-59q17 -15 26 -31l60 -59q45 -45 45 -128v-86h-160l-46 46v-3q0 -16 4 -27l83 -77q11 -11 19 -24l1 -1l58 -57q41 -40 41 -114v-62q0 -66 -34.5 -111t-96.5 -60v-107h-104l-77 77h-6v66l-5 4l-60 60q-66 40 -66 150v89h166v-6l40 -40q0 24 -14 41l-68 65l-13 13 l-69 65q-42 41 -42 116v62q0 152 131 174v107h110v-6zM152 510v47q0 37 42 37q38 0 38 -37v-73h126v69q0 141 -131 155v105h-70v-105q-131 -17 -131 -156v-62q0 -67 36 -102l138 -129q32 -29 32 -69v-47q0 -37 -42 -37q-38 0 -38 37v73h-126v-69q0 -141 131 -155v-105h70 v105q131 18 131 156v62q0 67 -36 102l-138 129q-32 29 -32 69z"/>
<glyph glyph-name="percent" horiz-adv-x="477" unicode="%" d="M286 616q9 -11 16 -23l65 127h123l-3 -6l78 -77l-177 -342q49 -11 70 -49l63 -62q31 -31 31 -87v-86q0 -56 -30.5 -87t-85.5 -31q-54 0 -85 31l-62 62q-25 15 -38 39l-63 -122h-116l-77 77h-8l179 348q-31 8 -50 28l-62 62q-52 29 -52 105v86q0 57 31.5 89t87.5 32 q72 0 102 -52zM20 0h78l359 700h-78zM220 523v86q0 47 -26.5 74t-72.5 27t-72.5 -27t-26.5 -74v-86q0 -47 26.5 -74t72.5 -27t72.5 27t26.5 74zM121 645q11 0 18.5 -8t7.5 -21v-100q0 -13 -7.5 -21t-18.5 -8t-18.5 8t-7.5 21v100q0 13 7.5 21t18.5 8zM455 91v86 q0 47 -26.5 74t-72.5 27t-72.5 -27t-26.5 -74v-86q0 -47 26.5 -74t72.5 -27t72.5 27t26.5 74zM356 213q11 0 18.5 -8t7.5 -21v-100q0 -13 -7.5 -21t-18.5 -8t-18.5 8t-7.5 21v100q0 13 7.5 21t18.5 8z"/>
<glyph glyph-name="ampersand" horiz-adv-x="499" unicode="&amp;" d="M238 159q-7 -20 -7 -47q15 0 32 7zM139 -52l-57 56q-80 53 -80 182q0 120 95 206q-2 2 -2 3v-2q-5 6 -9 15q-34 54 -34 134q0 98 50 143t126 45q101 0 145 -70l59 -58q48 -48 48 -140q0 -56 -28 -98h42v-6l77 -77q0 -109 -30 -196l37 -36v-156q-87 0 -144 40 q-57 -40 -133 -40q-107 0 -162 55zM474 344h-114q0 -64 -9 -113l-89 137q1 0 4.5 3t5.5 4q54 34 82.5 73t28.5 94q0 88 -44 128t-111 40t-111.5 -40t-44.5 -128q0 -73 31 -123l19 -32q-100 -81 -100 -201q0 -196 199 -196q77 0 134 44q56 -44 126 -44v122q-31 0 -53 15 q46 93 46 217zM221 92q-39 0 -63 26.5t-24 71.5q0 66 41 112l116 -189q-29 -21 -70 -21zM177 540q0 70 51 70q31 0 42 -16t11 -54q0 -24 -12 -43t-23 -27t-36 -23q-33 56 -33 93z"/>
<glyph glyph-name="quotesingle" horiz-adv-x="203" unicode="&apos;" d="M74 435l-40 149v136h135v-6l77 -77v-132l-39 -147h-51l-77 77h-5zM54 585l35 -130h25l35 130v115h-95v-115z"/>
<glyph glyph-name="parenleft" horiz-adv-x="293" unicode="(" d="M206 774l91 -70l-2 -3l78 -77q-113 -194 -113 -423t113 -423l-87 -66l-78 78l-2 -2q-81 101 -128.5 231t-47.5 262t47.5 262t128.5 231zM270 700l-61 46q-73 -92 -116 -214.5t-43 -250.5t43 -250.5t116 -214.5l61 46q-107 183 -107 419t107 419z"/>
<glyph glyph-name="parenright" horiz-adv-x="293" unicode=")" d="M-4 704l91 70l14 -18l66 -66q80 -100 126.5 -228.5t46.5 -260.5t-46.5 -260.5t-126.5 -228.5l-87 66l-67 67l-17 13q114 195 114 423t-114 423zM84 746l-61 -46q107 -183 107 -419t-107 -419l61 -46q73 92 116 214.5t43 250.5t-43 250.5t-116 214.5z"/>
<glyph glyph-name="asterisk" horiz-adv-x="415" unicode="*" d="M284 720l-1 -6l76 -76l22 9l3 -9l75 -75l44 -137l-117 -26l79 -90l-116 -84l-77 77l-46 -77l-116 85l-69 68l-15 12l38 43l-68 69l-8 2l47 144l108 -47l-11 118h152zM249 569l13 131h-108l12 -130l-119 52l-33 -102l127 -29l-86 -97l86 -63l67 112l66 -112l86 62l-86 98 l127 28l-32 101z"/>
<glyph glyph-name="plus" horiz-adv-x="400" unicode="+" d="M139 475h123v-6l77 -77v-23h29v-6l77 -77v-117h-106v-107h-117l-77 77h-6v30h-24l-77 77h-6v123h107v106zM242 455h-83v-106h-107v-83h107v-107h83v107h106v83h-106v106z"/>
<glyph glyph-name="comma" horiz-adv-x="177" unicode="," d="M-17 -180l51 143l-17 17h-6v155h155v-6l77 -77v-138l-118 -171h-58l-77 77h-7zM69 0l-58 -160h25l110 160v115h-115v-115h38z"/>
<glyph glyph-name="hyphen" horiz-adv-x="316" unicode="-" d="M5 226v153h306v-6l77 -77v-147h-300l-77 77h-6zM25 359v-113h266v113h-266z"/>
<glyph glyph-name="period" horiz-adv-x="177" unicode="." d="M11 -20v155h155v-6l77 -77v-149h-149l-77 77h-6zM31 115v-115h115v115h-115z"/>
<glyph glyph-name="slash" horiz-adv-x="373" unicode="/" d="M45 -97l-77 77h-8l301 740h152l-3 -6l78 -77l-298 -734h-145zM-10 0h108l285 700h-108z"/>
<glyph glyph-name="zero" horiz-adv-x="388" unicode="0" d="M8 350q0 143 24.5 229.5t63.5 118.5t98 32q82 0 126 -66l58 -57q79 -79 79 -337q0 -142 -24 -228t-62.5 -117.5t-96.5 -31.5q-64 0 -104 40l-59 59q-103 64 -103 358zM28 350q0 -200 42.5 -280t123.5 -80t123.5 80t42.5 280t-42.5 280t-123.5 80t-123.5 -80t-42.5 -280z M240 350q0 -125 -9 -189t-37 -64t-37 64t-9 189t9 189t37 64t37 -64t9 -189z"/>
<glyph glyph-name="one" horiz-adv-x="359" unicode="1" d="M338 637v-507h36v-6l77 -77v-144h-383l-77 77h-6v150h116v299l-33 -4l-77 77h-6v131q42 10 69 26.5t36 29t17 31.5h154v-6zM5 0h349v110h-113v590h-120q-8 -18 -16.5 -30t-34.5 -28t-65 -26v-91l116 16v-431h-116v-110z"/>
<glyph glyph-name="two" horiz-adv-x="359" unicode="2" d="M-6 118l165 277l10 17h-92l-77 77h-6q0 70 16 119.5t44.5 75t58.5 36t66 10.5q103 0 148 -66l61 -61q51 -51 51 -164q0 -93 -76 -220l-54 -89h56v-6l77 -77v-144h-365l-77 77h-6v138zM177 384l-163 -274v-110h331v110h-198l121 198q74 123 74 211q0 191 -163 191 q-70 0 -117.5 -45t-47.5 -156h120q0 48 8.5 68.5t36.5 20.5q26 0 34.5 -16t8.5 -53q0 -74 -45 -145z"/>
<glyph glyph-name="three" horiz-adv-x="377" unicode="3" d="M-14 190v71h160v-6l74 -74v48q-4 0 -13 0.5t-14 0.5l-77 77h-6v102h-38l-77 77h-6q0 65 13 112t31 72t46.5 39t51 17.5t52.5 3.5q105 0 154 -73l59 -59q52 -52 52 -152q0 -92 -61 -134l24 -24q46 -46 46 -126v-56q0 -97 -50.5 -155t-143.5 -58q-87 0 -137 50l-57 57 q-83 53 -83 190zM6 241v-51q0 -97 46.5 -148.5t130.5 -51.5q85 0 131 53.5t46 142.5v56q0 122 -103 146q46 12 70 50t24 88q0 94 -46.5 139t-121.5 45q-27 0 -47.5 -3t-46 -15t-41.5 -32.5t-27.5 -60t-11.5 -93.5h121q0 52 10.5 74.5t42.5 22.5q30 0 39 -21.5t9 -72.5 q0 -38 -21.5 -55t-79.5 -17v-110q59 0 84.5 -18t25.5 -67v-62q0 -83 -57 -83q-29 0 -43 18.5t-14 64.5v61h-120z"/>
<glyph glyph-name="four" horiz-adv-x="384" unicode="4" d="M68 57l-77 77h-6v134l206 452h152v-6l77 -77v-394l42 -42v-144h-42v-154h-154l-77 77h-6v77h-115zM203 0h120v154h42v110h-42v436h-120l-198 -436v-110h198v-154zM203 264h-80l80 195v-195z"/>
<glyph glyph-name="five" horiz-adv-x="390" unicode="5" d="M227 158q1 8 1 27v23h-50zM-2 202v32h57l-51 51h-6v435h362v-6l77 -77v-141h-156q48 -17 72 -56l59 -58q53 -53 53 -203v-41q0 -47 -6 -84t-16 -62.5t-26 -44t-31.5 -28.5t-36 -16.5t-38 -8t-38.5 -1.5q-91 0 -137 46l-57 57q-81 50 -81 206zM18 202q0 -121 46.5 -166.5 t128.5 -45.5q36 0 62 7t54.5 28.5t43.5 70t15 122.5v41q0 127 -38 177.5t-132 50.5q-34 0 -60 -20v126h202v107h-322v-395h120v9q3 66 60 66q31 0 40.5 -19t9.5 -69v-107q0 -50 -10.5 -69t-44.5 -19q-32 0 -43.5 20t-11.5 68v29h-120v-12z"/>
<glyph glyph-name="six" horiz-adv-x="406" unicode="6" d="M8 202v239q0 289 190 289q110 0 156 -69l61 -60q53 -53 53 -180h-107l56 -56q58 -58 58 -202v-25q0 -47 -6 -84t-16 -62.5t-26 -44t-31.5 -28.5t-36 -16.5t-38 -8t-38.5 -1.5q-91 0 -137 46l-57 57q-81 50 -81 206zM28 441v-239q0 -121 46.5 -166.5t128.5 -45.5 q36 0 62 7t54.5 28.5t43.5 70t15 122.5v25q0 74 -15 122.5t-43.5 70t-54.5 28.5t-62 7q-15 0 -33 -9t-22 -19v30q0 127 50 127q28 0 40 -18t12 -64h121q0 89 -36.5 140.5t-136.5 51.5q-170 0 -170 -269zM203 97q-34 0 -44.5 19t-10.5 69v91q0 50 10.5 69t44.5 19t44.5 -19 t10.5 -69v-91q0 -50 -10.5 -69t-44.5 -19z"/>
<glyph glyph-name="seven" horiz-adv-x="332" unicode="7" d="M65 482l-77 77h-6v161h371v-6l77 -77v-144q-5 -8 -14.5 -23.5t-32.5 -71t-40.5 -118.5t-32 -165t-14.5 -212h-155l-77 77h-6q0 271 84 502h-77zM78 0h121q0 107 14 205.5t33.5 163.5t39 115t33.5 72l14 23v121h-331v-121h204q-49 -101 -88.5 -252.5t-39.5 -326.5z"/>
<glyph glyph-name="eight" horiz-adv-x="388" unicode="8" d="M134 -60l-59 59q-76 47 -76 190v43q0 106 45 161q-35 38 -35 109v31q0 101 52.5 149t132.5 48q106 0 154 -75l57 -57q51 -51 51 -145v-31q0 -72 -36 -109q46 -49 46 -161v-43q0 -108 -45.5 -162t-146.5 -54q-93 0 -140 47zM359 502v31q0 91 -47 134t-118 43t-118 -43 t-47 -134v-31q0 -71 43 -109q-53 -47 -53 -161v-43q0 -100 41.5 -149.5t133.5 -49.5t133.5 49.5t41.5 149.5v43q0 113 -53 161q43 38 43 109zM138 181v59q0 84 56 84t56 -84v-59q0 -84 -56 -84t-56 84zM148 487v60q0 56 46 56t46 -56v-60q0 -54 -41 -56h-5q-46 0 -46 56z "/>
<glyph glyph-name="nine" horiz-adv-x="406" unicode="9" d="M151 -61l-61 61q-75 49 -75 202h107l-34 33q-80 52 -80 222v25q0 65 12.5 112.5t30 73t45.5 40t52 18.5t55 4q113 0 159 -72l58 -57q55 -55 55 -183v-239q0 -286 -187 -286q-91 0 -137 46zM378 259v239q0 121 -46.5 166.5t-128.5 45.5q-36 0 -62 -7t-54.5 -28.5 t-43.5 -70t-15 -122.5v-25q0 -74 15 -122.5t43.5 -70t54.5 -28.5t62 -7q15 0 33 9t22 19v-30q0 -127 -50 -127q-28 0 -40 18t-12 64h-121q0 -89 36.5 -140.5t136.5 -51.5q170 0 170 269zM203 603q34 0 44.5 -19t10.5 -69v-91q0 -50 -10.5 -69t-44.5 -19t-44.5 19t-10.5 69 v91q0 50 10.5 69t44.5 19z"/>
<glyph glyph-name="colon" horiz-adv-x="177" unicode=":" d="M11 345v155h155v-6l77 -77v-149h-149l-77 77h-6zM11 -20v155h155v-6l77 -77v-149h-149l-77 77h-6zM31 115v-115h115v115h-115zM31 480v-115h115v115h-115z"/>
<glyph glyph-name="semicolon" horiz-adv-x="177" unicode=";" d="M11 345v155h155v-6l77 -77v-149h-149l-77 77h-6zM-17 -180l51 143l-17 17h-6v155h155v-6l77 -77v-138l-118 -171h-58l-77 77h-7zM69 0l-58 -160h25l110 160v115h-115v-115h38zM31 480v-115h115v115h-115z"/>
<glyph glyph-name="less" horiz-adv-x="400" unicode="&lt;" d="M361 505l-1 -9l78 -77l-4 -150l-142 -96l69 -44v-5l77 -77v-152l-316 204l-69 69l-14 9v120zM341 356v112l-282 -182v-98l282 -182v112l-184 119z"/>
<glyph glyph-name="equal" horiz-adv-x="400" unicode="=" d="M42 316v133h316v-6l77 -77v-127h-53l53 -53v-127h-310l-77 77h-6v133h53l-47 47h-6zM62 429v-93h276v93h-276zM62 249v-93h276v93h-276z"/>
<glyph glyph-name="greater" horiz-adv-x="400" unicode="&gt;" d="M39 345v160l322 -208v-5l77 -77v-116l-316 -204l-78 78l-5 -4v160l148 96l-65 42l-70 69zM59 468v-112l184 -119l-184 -119v-112l282 182v98z"/>
<glyph glyph-name="question" horiz-adv-x="400" unicode="?" d="M122 -20v155h66l-59 59h-6v217q34 7 64 27h-101l-77 77h-6q0 104 52.5 159.5t144.5 55.5q117 0 168 -79l56 -56q50 -50 50 -136q0 -39 -12.5 -74.5t-30 -59t-35.5 -41t-30 -25.5l-13 -8v-134h-64l65 -65v-149h-149l-77 77h-6zM142 115v-115h115v115h-115zM256 214v129 q5 2 13 6.5t29 21t37 37t29 55.5t13 76q0 81 -47.5 126t-129.5 45q-83 0 -130 -45t-47 -130h124q0 44 13.5 59.5t39.5 15.5q60 0 60 -75q0 -34 -12 -60.5t-29 -41t-34.5 -24t-29.5 -12.5l-12 -3v-180h113z"/>
<glyph glyph-name="at" horiz-adv-x="624" unicode="@" d="M224 107q3 -17 9 -30q13 -7 31 -12zM189 -50l-51 50q-54 40 -84.5 102t-30.5 135q0 123 81.5 207t209.5 84q167 0 241 -108l52 -51q71 -71 71 -191q0 -62 -26.5 -102.5t-80.5 -52.5l57 -71q-60 -46 -114 -64.5t-120 -18.5q-124 0 -205 81zM180 246q-2 -16 -2 -23 q0 -45 29 -74t79 -29q44 0 72 27q6 -12 30.5 -22t57.5 -10q67 0 101 38.5t34 104.5q0 118 -72 184t-195 66q-119 0 -195 -78t-76 -193t76 -193t195 -78q64 0 112.5 15t97.5 53l-45 57q-69 -52 -165 -52q-80 0 -136 51.5t-56 146.5t56 146.5t136 51.5q91 0 139.5 -40.5 t48.5 -136.5q0 -37 -17.5 -59.5t-43.5 -22.5q-22 0 -22 26q0 6 1 9l-1 -1l21 156h-54l-2 -16q-28 22 -63 22q-119 0 -141 -126zM255 246q11 69 59 69q49 0 49 -48q0 -7 -2 -21q-9 -69 -69 -69q-39 0 -39 44q0 7 2 25z"/>
<glyph glyph-name="A" d="M83 720h210l1 -7l76 -76l99 -734h-156l-77 77h-4l-9 -77h-156l-77 77h-6zM275 700h-174l-94 -700h121l15 120h90l15 -120h121zM188 529l29 -285h-58z" unicode="A"/>
<glyph glyph-name="B" horiz-adv-x="413" unicode="B" d="M108 -97l-77 77h-6v740h230q87 0 120 -55l62 -62q34 -34 34 -102v-154q0 -56 -27 -77q27 -27 27 -77v-154q0 -136 -136 -136h-227zM45 0h210q119 0 119 119v154q0 62 -46 77q46 15 46 77v154q0 119 -119 119h-210v-700zM171 301h49q28 0 28 -28v-129q0 -28 -28 -28h-49 v185zM171 584h49q28 0 28 -28v-129q0 -28 -28 -28h-49v185z"/>
<glyph glyph-name="C" horiz-adv-x="420" unicode="C" d="M144 -59l-58 58q-69 42 -69 149v404q0 178 193 178q122 0 167 -73l59 -58q44 -44 44 -127v-84h-160l-60 60v-213h143v-6l77 -77v-84q0 -175 -190 -175q-98 0 -146 48zM383 215h-126v-72q0 -37 -47 -37t-47 37v414q0 37 47 37t47 -37v-72h126v67q0 158 -173 158t-173 -158 v-404q0 -158 173 -158t173 158v67z"/>
<glyph glyph-name="D" horiz-adv-x="415" unicode="D" d="M25 -20v740h245q87 0 120 -55l62 -62q34 -34 34 -102v-462q0 -136 -136 -136h-242l-77 77h-6zM45 700v-700h225q119 0 119 119v462q0 119 -119 119h-225zM243 116h-72v468h72q11 0 15.5 -4.5t4.5 -15.5v-428q0 -11 -4.5 -15.5t-15.5 -4.5z"/>
<glyph glyph-name="E" horiz-adv-x="344" unicode="E" d="M25 720h316v-6l77 -77v-150h-150v-38h29v-6l77 -77v-150h-106v-80h77v-6l77 -77v-150h-314l-77 77h-6v740zM321 700h-276v-700h280v116h-154v197h106v116h-106v155h150v116z"/>
<glyph glyph-name="F" horiz-adv-x="330" unicode="F" d="M25 720h310v-6l77 -77v-150h-144v-38h29v-6l77 -77v-150h-106v-313h-160l-77 77h-6v740zM315 700h-270v-700h126v313h106v116h-106v155h144v116z"/>
<glyph glyph-name="G" horiz-adv-x="420" unicode="G" d="M260 448v-53h53zM144 -59l-58 58q-69 42 -69 149v404q0 178 193 178q122 0 167 -73l59 -58q44 -44 44 -127v-84h-76l76 -76v-244q0 -175 -190 -175q-98 0 -146 48zM210 375v-116h47v-116q0 -37 -47 -37t-47 37v414q0 37 47 37t47 -37v-72h126v67q0 158 -173 158 t-173 -158v-404q0 -158 173 -158t173 158v227h-173z"/>
<glyph glyph-name="H" horiz-adv-x="438" unicode="H" d="M108 -97l-77 77h-6v740h166v-6l56 -56v62h166v-6l77 -77v-734h-160l-62 62v-62h-160zM267 700v-270h-96v270h-126v-700h126v314h96v-314h126v700h-126z"/>
<glyph glyph-name="I" horiz-adv-x="216" unicode="I" d="M191 720v-6l77 -77v-734h-160l-77 77h-6v740h166zM171 0v700h-126v-700h126z"/>
<glyph glyph-name="J" horiz-adv-x="416" unicode="J" d="M87 566v154h304v-6l77 -77v-569q0 -175 -190 -175q-98 0 -146 48l-58 58q-69 42 -69 149v87h166v-6l54 -54v314h-55l-77 77h-6zM107 700v-114h138v-443q0 -37 -47 -37t-47 37v72h-126v-67q0 -158 173 -158t173 158v552h-264z"/>
<glyph glyph-name="K" horiz-adv-x="435" unicode="K" d="M108 -97l-77 77h-6v740h166v-6l49 -49l28 55h177l-3 -5l78 -78l-149 -276l157 -458h-175l-77 77h-5l-3 11v-88h-160zM280 700l-109 -212v212h-126v-700h126v252l27 50l88 -302h139l-152 443l139 257h-132z"/>
<glyph glyph-name="L" horiz-adv-x="333" unicode="L" d="M25 -20v740h166v-6l77 -77v-503h67v-6l77 -77v-148h-304l-77 77h-6zM45 700v-700h270v114h-144v586h-126z"/>
<glyph glyph-name="M" horiz-adv-x="572" unicode="M" d="M547 720v-6l77 -77v-734h-160l-45 45l-8 -45h-90l-53 53v-53h-160l-77 77h-6v740h205l2 -8l75 -75l8 -36l27 119h205zM527 0v700h-168l-73 -311l-73 311h-168v-700h126v470l84 -470h62l84 470v-470h126z"/>
<glyph glyph-name="N" horiz-adv-x="461" unicode="N" d="M108 -97l-77 77h-6v740h160l2 -8l76 -75l7 -21v104h166v-6l77 -77v-734h-155l-77 77h-5l-8 25v-102h-160zM290 700v-352l-119 352h-126v-700h126v371l119 -371h126v700h-126z"/>
<glyph glyph-name="O" horiz-adv-x="410" unicode="O" d="M144 -60l-60 60q-67 42 -67 148v404q0 178 188 178q115 0 160 -70l61 -60q44 -44 44 -128v-404q0 -175 -185 -175q-94 0 -141 47zM373 148v404q0 76 -42 117t-126 41t-126 -41t-42 -117v-404q0 -76 42 -117t126 -41t126 41t42 117zM205 594q42 0 42 -37v-414 q0 -37 -42 -37t-42 37v414q0 37 42 37z"/>
<glyph glyph-name="P" horiz-adv-x="390" unicode="P" d="M108 -97l-77 77h-6v740h235q85 0 115 -53l63 -62q33 -33 33 -104v-182q0 -69 -31.5 -102.5t-99.5 -33.5h-72v-280h-160zM171 280h89q59 0 86.5 29t27.5 90v182q0 61 -27.5 90t-86.5 29h-215v-700h126v280zM220 396h-49v188h49q32 0 32 -29v-130q0 -29 -32 -29z"/>
<glyph glyph-name="Q" horiz-adv-x="427" unicode="Q" d="M144 -60l-60 60q-67 42 -67 148v404q0 178 188 178q115 0 160 -70l61 -60q44 -44 44 -128v-404q0 -16 -4 -44l4 -2l-2 -2l78 -78l-99 -115l-79 78l-1 -2l-1 1q-36 -11 -81 -11q-94 0 -141 47zM373 148v404q0 76 -42 117t-126 41t-126 -41t-42 -117v-404q0 -76 42 -117 t126 -41q51 0 86 15l75 -73l76 88l-80 60q11 31 11 68zM205 594q42 0 42 -37v-414q0 -37 -42 -37t-42 37v414q0 37 42 37z"/>
<glyph glyph-name="R" horiz-adv-x="419" unicode="R" d="M108 -97l-77 77h-6v740h235q85 0 115 -53l63 -62q33 -33 33 -104v-150q0 -67 -32 -92l16 -15q23 -23 23 -84v-155q0 -44 29 -102h-151l-77 77h-4q-3 3 -7 9v-86h-160zM312 338q35 8 48.5 29.5t13.5 63.5v150q0 61 -27.5 90t-86.5 29h-215v-700h126v301h29 q23 0 38.5 -13.5t15.5 -41.5v-106q0 -103 30 -140h117q-20 42 -20 85v155q0 42 -12 63.5t-57 34.5zM171 584h49q28 0 28 -28v-129q0 -28 -28 -28h-49v185z"/>
<glyph glyph-name="S" horiz-adv-x="388" unicode="S" d="M132 296l-13 13l-69 65q-42 41 -42 116v62q0 178 188 178q114 0 158 -70l59 -58q44 -44 44 -129v-86h-160l-46 46v-3q0 -16 4 -27l83 -77q11 -11 19 -24l1 -1l58 -57q41 -40 41 -114v-62q0 -175 -185 -175q-92 0 -137 45l-60 60q-67 42 -67 149v89h166v-6l40 -40 q0 24 -14 41zM154 510v47q0 37 42 37q38 0 38 -37v-73h126v69q0 157 -164 157q-84 0 -126 -41t-42 -117v-62q0 -67 36 -102l138 -129q32 -29 32 -69v-47q0 -37 -42 -37q-38 0 -38 37v73h-126v-69q0 -157 164 -157q84 0 126 41t42 117v62q0 67 -36 102l-138 129 q-32 29 -32 69z"/>
<glyph glyph-name="T" horiz-adv-x="338" unicode="T" d="M-15 720h368v-6l77 -77v-150h-101v-584h-160l-77 77h-6v507h-18l-77 77h-6v156zM333 700h-328v-116h101v-584h126v584h101v116z"/>
<glyph glyph-name="U" horiz-adv-x="420" unicode="U" d="M398 720v-6l77 -77v-569q0 -175 -185 -175q-94 0 -141 47l-60 60q-67 42 -67 148v572h166v-6l44 -44v50h166zM378 148v552h-126v-557q0 -37 -42 -37t-42 37v557h-126v-552q0 -76 42 -117t126 -41t126 41t42 117z"/>
<glyph glyph-name="V" horiz-adv-x="374" unicode="V" d="M144 720l1 -7l75 -75l10 82h161l-1 -6l78 -77l-95 -734h-212l-77 77h-6l-95 740h161zM187 189l-61 511h-121l91 -700h182l91 700h-121z"/>
<glyph glyph-name="W" horiz-adv-x="598" unicode="W" d="M169 -97l-77 77h-6l-105 740h171l1 -7l70 -71q9 56 13 78h126l1 -7l73 -74l10 81h171l-1 -6l78 -77l-105 -734h-160l-77 77h-6l-17 -77h-160zM363 0h131l100 700h-130l-51 -429l-69 429h-90l-69 -429l-51 429h-130l100 -700h131l64 279z"/>
<glyph glyph-name="X" horiz-adv-x="346" unicode="X" d="M54 -97l-77 77h-7l126 379q-98 282 -125 361h158l2 -8l62 -62l4 13l20 57h158l-2 -5l78 -78l-124 -359q18 -52 39.5 -116.5t47 -142.5t38.5 -116h-147l-77 77h-2l-25 -77h-147zM109 0l64 191l64 -191h112l-120 359l118 341h-116l-58 -173l-58 173h-116l118 -341 l-120 -359h112z"/>
<glyph glyph-name="Y" horiz-adv-x="364" unicode="Y" d="M182 -97l-77 77h-6v251q-121 438 -135 489h167l2 -8l75 -75l2 -11l23 94h167l-2 -6l78 -77l-134 -485v-249h-160zM250 700l-68 -272l-68 272h-124l129 -466v-234h126v234l129 466h-124z"/>
<glyph glyph-name="Z" horiz-adv-x="280" unicode="Z" d="M71 487l-77 77h-6v156h301v-6l77 -77v-135l-112 -366h41v-6l77 -77l-2 -150h-302l-77 77h-6v139l111 368h-25zM126 116l143 468v116h-261v-116h137l-140 -468v-116h268q2 0 2 2v114h-149z"/>
<glyph glyph-name="bracketleft" horiz-adv-x="327" unicode="[" d="M82 -246v966h223v-6l77 -77v-127h-86v-623h9v-6l77 -77v-127h-217l-77 77h-6zM102 700v-926h183v93h-86v740h86v93h-183z"/>
<glyph glyph-name="backslash" horiz-adv-x="373" unicode="\" d="M343 -97l-77 77h-5l-301 740h152l3 -9l75 -74l298 -734h-145zM275 0h108l-285 700h-108z"/>
<glyph glyph-name="bracketright" horiz-adv-x="327" unicode="]" d="M245 720v-6l77 -77v-960h-217l-77 77h-6v133h86v623h-3l-77 77h-6v133h223zM225 -226v926h-183v-93h86v-740h-86v-93h183z"/>
<glyph glyph-name="asciicircum" horiz-adv-x="450" unicode="^" d="M108 328l-77 77h-8l138 315h128l4 -9l74 -74l135 -309l-134 5l-78 78h-4l-4 8l-36 -91h-138zM55 425h99l71 178l71 -178h99l-120 275h-100z"/>
<glyph glyph-name="underscore" horiz-adv-x="356" unicode="_" d="M-20 -133v153h396v-6l77 -77v-147h-390l-77 77h-6zM0 0v-113h356v113h-356z"/>
<glyph glyph-name="grave" horiz-adv-x="255" unicode="`" d="M120 534l-158 186h193l5 -11l73 -72l95 -180h-127l-77 77h-4zM5 700l124 -146h91l-77 146h-138z"/>
<glyph glyph-name="a" horiz-adv-x="378" unicode="a" d="M121 -74l-61 61q-61 36 -61 126q0 102 66 149l-47 49h-6q0 87 43.5 140t128.5 53q113 0 154 -64l61 -61q44 -44 44 -145v-224q0 -16 5 -42.5t10 -45.5l5 -19h-150l-18 18q-38 -28 -91 -28q-50 0 -83 33zM244 0h117q-15 54 -15 90v224q0 91 -39 130.5t-123 39.5 q-75 0 -113.5 -42t-38.5 -111h108q0 57 44 57q25 0 34.5 -19t9.5 -75v-1q-105 -16 -157 -54t-52 -126q0 -55 28.5 -89t76.5 -34q37 0 60.5 12.5t47.5 38.5zM228 213v-101q-23 -35 -48 -35q-40 0 -40 50q0 41 30 63.5t58 22.5z"/>
<glyph glyph-name="b" horiz-adv-x="372" unicode="b" d="M11 -20v740h158v-6l77 -77v-134q65 -6 94 -51l63 -63q-1 0 -1 0.5t-1 0.5l2 -1q39 -39 39 -128v-195q0 -84 -40 -128.5t-106 -44.5q-50 0 -84 34l-14 -24h-104l-77 77h-6zM31 700v-700h78l22 35q30 -45 85 -45q58 0 93.5 40t35.5 116v195q0 143 -116 143q-39 0 -80 -37 v253h-118zM227 330v-182q0 -51 -41 -51q-22 0 -37 20v244q16 20 37 20q41 0 41 -51z"/>
<glyph glyph-name="c" horiz-adv-x="377" unicode="c" d="M132 -63l-61 61q-64 40 -64 145v188q0 173 183 173q115 0 157 -67l61 -60q42 -42 42 -126v-37h-153l-54 54q-1 -5 -1 -17v-68h131v-6l77 -77v-37q0 -170 -180 -170q-94 0 -138 44zM234 331v-20h119v20q0 153 -163 153t-163 -153v-188q0 -153 163 -153t163 153v20h-119 v-20q0 -32 -9 -44.5t-35 -12.5t-35.5 12.5t-9.5 44.5v188q0 32 9.5 44.5t35.5 12.5t35 -12.5t9 -44.5z"/>
<glyph glyph-name="d" horiz-adv-x="372" unicode="d" d="M7 123v218q0 163 136 163q31 0 60 -17v233h158v-6l77 -77v-734h-152l-11 11q-28 -21 -65 -21q-53 0 -83 30l-63 63q-57 33 -57 137zM27 341v-218q0 -133 103 -133q62 0 93 64v-54h118v700h-118v-253q-41 37 -80 37q-116 0 -116 -143zM145 147v183q0 51 41 51q21 0 37 -20 v-248q-19 -17 -37 -17q-41 0 -41 51z"/>
<glyph glyph-name="e" horiz-adv-x="380" unicode="e" d="M133 -62l-62 62q-64 42 -64 148v178q0 178 183 178q111 0 154 -66l63 -62q43 -43 43 -130v-137h-34l34 -34v-23q0 -159 -180 -159q-92 0 -137 45zM190 86q-45 0 -45 47v73h208v120q0 158 -163 158t-163 -158v-178q0 -158 163 -158t163 142v6h-118v-5q0 -47 -45 -47z M190 388q45 0 45 -47v-36h-90v36q0 47 45 47z"/>
<glyph glyph-name="f" horiz-adv-x="281" unicode="f" d="M-16 349v145h59v63q0 80 36.5 126.5t114.5 46.5q22 0 47.5 -6t40.5 -12l14 -5v-5l77 -77v-135q-42 21 -69 21q-19 0 -24 -23l77 -77v-139h-79v-369h-152l-77 77h-6v316l-53 53h-6zM4 474v-105h59v-369h118v369h79v105h-79v71q0 63 43 63q13 0 26 -3t20 -5l6 -3v96 q-39 17 -82 17q-131 0 -131 -153v-6v-77h-59z"/>
<glyph glyph-name="g" horiz-adv-x="390" unicode="g" d="M231 -111q-9 -3 -18 -8q10 1 18 8zM0 106q0 60 48 95q-35 42 -35 107v28q0 76 49.5 122t129.5 46q51 0 89 -19q23 23 59 39t72 16l-1 -6l78 -77l-8 -130h-2q-25 0 -39 -18q8 -24 8 -53v-28q0 -56 -28 -96.5t-77 -57.5q23 -18 36 -39l59 -58q43 -43 43 -113 q0 -93 -47 -145t-158 -52q-129 0 -183 54l-60 60q-61 40 -61 122q0 75 61 111q-33 29 -33 92zM20 106q0 -71 55 -95q-83 -28 -83 -108q0 -139 204 -139q188 0 188 180q0 51 -26.5 85.5t-64 49t-74.5 23.5t-63.5 17.5t-26.5 21.5q0 16 17 24q23 -5 46 -5q71 0 115 40.5 t44 107.5v28q0 31 -11 58q7 9 20 14.5t22 6.5l10 1v104q-28 0 -58.5 -18t-48.5 -43q-39 25 -93 25q-71 0 -115 -40.5t-44 -107.5v-28q0 -69 46 -110q-28 -15 -43.5 -40t-15.5 -52zM94 -80q0 20 14.5 39.5t44.5 26.5q5 -1 12 -2t26.5 -6.5t34 -12t26.5 -18.5t12 -27 q0 -61 -68 -61q-102 0 -102 61zM192 396q48 0 48 -57v-34q0 -57 -48 -57t-48 57v34q0 57 48 57z"/>
<glyph glyph-name="h" d="M246 637v-134q3 1 10 1q65 0 91 -43l65 -65q30 -30 30 -105v-388h-152l-44 44v-44h-152l-77 77h-6v740h158v-6zM227 337v-337h118v371q0 57 -20.5 85t-68.5 28q-50 0 -107 -69v285h-118v-700h118v330q31 41 51 41q27 0 27 -34z" unicode="h"/>
<glyph glyph-name="i" horiz-adv-x="180" unicode="i" d="M11 562v158h158v-6l77 -77v-152h-74l74 -74v-508h-152l-77 77h-6v514h74l-68 68h-6zM31 474v-474h118v474h-118zM31 700v-118h118v118h-118z"/>
<glyph glyph-name="j" horiz-adv-x="180" unicode="j" d="M11 562v158h158v-6l77 -77v-152h-74l74 -74v-574q0 -90 -45 -130t-131 -40q-12 0 -26 3.5t-22 7.5l-8 3l-74 74l-9 4v141q40 -20 59 -20q21 0 21 37v577h74l-68 68h-6zM31 474v-557q0 -57 -41 -57q-10 0 -20 2t-14 4l-5 2v-96q16 -8 39 -8q78 0 118.5 36t40.5 117v557 h-118zM31 700v-118h118v118h-118z"/>
<glyph glyph-name="k" horiz-adv-x="377" unicode="k" d="M94 -97l-77 77h-6v740h158v-6l77 -77v-143h148l-4 -5l79 -78l-128 -185q87 -203 137 -323h-166l-66 66v-66h-152zM217 474l-68 -108v334h-118v-700h118v174l22 31l73 -205h128l-130 308l115 166h-140z"/>
<glyph glyph-name="l" horiz-adv-x="242" unicode="l" d="M11 130v590h158v-6l77 -77v-501l10 8v-9l77 -77v-141q-44 -24 -91 -24q-78 0 -113 35l-62 62q-56 33 -56 140zM31 700v-570q0 -72 28 -106t103 -34q19 0 37.5 4t27.5 8l9 5v96q-14 -11 -44 -11q-28 0 -35.5 14.5t-7.5 51.5v542h-118z"/>
<glyph glyph-name="m" horiz-adv-x="572" unicode="m" d="M94 -97l-77 77h-6v514h158v-6l12 -13q39 29 75 29q66 0 92 -45l4 -5q50 50 100 50q65 0 91 -43l65 -65q30 -30 30 -105v-388h-152l-44 44v-44h-152l-44 44v-44h-152zM227 337v-337h118v330q31 41 51 41q27 0 27 -34v-337h118v371q0 57 -20.5 85t-68.5 28q-51 0 -110 -72 q-12 72 -86 72q-50 0 -107 -69v59h-118v-474h118v330q31 41 51 41q27 0 27 -34z"/>
<glyph glyph-name="n" d="M94 -97l-77 77h-6v514h158v-6l12 -13q39 29 75 29q65 0 91 -43l65 -65q30 -30 30 -105v-388h-152l-44 44v-44h-152zM227 337v-337h118v371q0 57 -20.5 85t-68.5 28q-50 0 -107 -69v59h-118v-474h118v330q31 41 51 41q27 0 27 -34z" unicode="n"/>
<glyph glyph-name="o" horiz-adv-x="374" unicode="o" d="M133 -63l-61 61q-65 41 -65 150v178q0 178 180 178q112 0 154 -67l60 -60q43 -43 43 -131v-178q0 -175 -177 -175q-90 0 -134 44zM347 148v178q0 158 -160 158t-160 -158v-178q0 -158 160 -158t160 158zM187 388q22 0 32 -11t10 -36v-208q0 -25 -10 -36t-32 -11t-32 11 t-10 36v208q0 25 10 36t32 11z"/>
<glyph glyph-name="p" horiz-adv-x="372" unicode="p" d="M11 -246v740h158v-7l5 -5q28 22 68 22q70 0 100 -51l63 -62q37 -37 37 -120v-218q0 -160 -133 -160q-31 0 -63 20v-236h-152l-77 77h-6zM31 474v-700h118v252q41 -36 80 -36q116 0 116 143v218q0 133 -103 133q-64 0 -93 -64v54h-118zM186 378q38 0 41 -45v-189v-6v-1 q-3 -44 -41 -44q-22 0 -37 20v247q20 18 37 18z"/>
<glyph glyph-name="q" horiz-adv-x="372" unicode="q" d="M361 494v-6l77 -77v-734h-152l-77 77h-6v140q-48 5 -74 31l-64 64q-58 36 -58 144v195q0 85 40.5 130.5t108.5 45.5q50 0 83 -32q2 5 7 12.5t6 9.5h109zM341 -226v700h-78l-22 -35q-31 45 -85 45q-58 0 -93.5 -40t-35.5 -116v-195q0 -143 116 -143q39 0 80 36v-252h118z M145 144v182q0 51 41 51q21 0 37 -20v-244q-15 -20 -37 -20q-41 0 -41 51z"/>
<glyph glyph-name="r" horiz-adv-x="292" unicode="r" d="M11 -20v514h158v-6l15 -16q57 32 117 32v-6l77 -77v-195l-29 28q-22 20 -39 20q-41 0 -64 -61v-310h-152l-77 77h-6zM31 474v-474h118v296q27 75 81 75q16 0 28.5 -4.5t17.5 -8.5l5 -5v131q-41 0 -77.5 -21.5t-54.5 -52.5v64h-118z"/>
<glyph glyph-name="s" horiz-adv-x="334" unicode="s" d="M111 173l-58 58l-3 2q-56 40 -56 117q0 71 45.5 112.5t127.5 41.5q95 0 140 -63l63 -63q47 -47 47 -141h-128q21 -15 34 -35l61 -61q33 -33 33 -97q0 -61 -42 -106t-128 -45q-90 0 -130 40l-62 62q-36 23 -48.5 63.5t-12.5 101.5h130q-7 6 -13 13zM132 344v6q0 38 35 38 t35 -38v-16h118q0 67 -36.5 108.5t-116.5 41.5q-73 0 -113 -36t-40 -98q0 -67 48 -101l104 -71q22 -15 29 -25t7 -23v-6q0 -38 -35 -38t-35 38v16h-118q0 -35 5 -58.5t20 -46.5t47 -34t81 -11q77 0 115 40t38 94q0 67 -43 97l-116 80q-29 22 -29 43z"/>
<glyph glyph-name="t" horiz-adv-x="286" unicode="t" d="M-8 348v146h63v226h158v-6l77 -77v-143h2v-6l77 -77v-140h-79v-149l8 4v-8l77 -77v-135q-55 -13 -96 -13q-66 0 -104 38l-60 60q-60 35 -60 119v181l-57 57h-6zM12 474v-106h63v-258q0 -55 33 -87.5t91 -32.5q38 0 79 10v94q-16 -8 -37 -8q-47 0 -48 47v235h79v106h-79 v226h-118v-226h-63z"/>
<glyph glyph-name="u" d="M169 494v-6l38 -38v44h158v-6l77 -77v-508h-152l-18 18q-38 -28 -72 -28q-51 0 -76 25l-66 66q-47 26 -47 119v391h158zM149 137v337h-118v-371q0 -57 20.5 -85t68.5 -28q47 0 107 68v-58h118v474h-118v-330q-31 -41 -51 -41q-27 0 -27 34z" unicode="u"/>
<glyph glyph-name="v" horiz-adv-x="351" unicode="v" d="M370 494l-2 -6l78 -77l-118 -508h-145l-77 77h-6l-119 514h161l1 -7l55 -55l11 62h161zM234 0l110 474h-117l-52 -292l-51 292h-117l110 -474h117z"/>
<glyph glyph-name="w" horiz-adv-x="532" unicode="w" d="M551 494l-2 -6l78 -77l-120 -508h-133l-47 47l-9 -47h-133l-77 77h-6l-121 514h161l1 -8l46 -47q5 35 10 55h134l1 -7l47 -47l9 54h161zM413 0l112 474h-117l-45 -272l-48 272h-98l-48 -272l-45 272h-117l112 -474h105l42 226l42 -226h105z"/>
<glyph glyph-name="x" horiz-adv-x="344" unicode="x" d="M-21 -20l112 265q-16 40 -53 124.5t-53 124.5h163l2 -8l32 -32l14 40h163l-3 -6l78 -77l-104 -246q33 -80 110 -262h-156l-48 48q-9 -23 -16 -48h-156l-77 77h-8zM113 244l-103 -244h118l44 129l44 -129h118l-103 244l97 230h-118l-38 -110l-38 110h-118z"/>
<glyph glyph-name="y" horiz-adv-x="390" unicode="y" d="M408 494l-2 -6l78 -77l-176 -637q-21 -60 -64 -83.5t-108 -23.5q-13 0 -29.5 3.5t-26.5 7.5l-10 4l-75 75l-8 3v157q40 -29 63 -29q32 0 42 35l23 79q-21 80 -66.5 245.5t-67.5 246.5h168l1 -8l71 -71l17 79h170zM212 -141l170 615h-127l-62 -292l-61 292h-125l128 -473 l-24 -84q-14 -49 -61 -49q-13 0 -23.5 2.5t-14.5 5.5l-5 2v-104q25 -10 49 -10q124 0 156 95z"/>
<glyph glyph-name="z" horiz-adv-x="252" unicode="z" d="M-12 349v145h276v-6l77 -77v-127l-75 -168l75 -74v-139h-270l-77 77h-6v131l75 168l-69 70h-6zM8 474v-105h118l-118 -264v-105h236v105h-118l118 264v105h-236z"/>
<glyph glyph-name="braceleft" horiz-adv-x="303" unicode="{" d="M11 170v134q38 0 54 11.5t16 38.5v266q0 47 26.5 73.5t73.5 26.5h123v-6l77 -77v-128h-73q-13 0 -13 -13v-266q0 -48 -32 -72l7 -7l-1 1h-1l6 -5q21 -21 21 -63v-196h9v-6l77 -77v-128h-120q-45 0 -71 26l-63 63q-46 25 -46 88v252l-64 64h-6zM31 284v-94q37 0 53.5 -16 t16.5 -54v-266q0 -38 21.5 -59t58.5 -21h103v94h-56q-30 0 -30 30v266q0 58 -60 73q60 15 60 73v266q0 30 30 30h56v94h-103q-37 0 -58.5 -21t-21.5 -59v-266q0 -38 -16.5 -54t-53.5 -16z"/>
<glyph glyph-name="bar" horiz-adv-x="207" unicode="|" d="M172 720v-6l77 -77v-960h-131l-77 77h-6v966h137zM152 -226v926h-97v-926h97z"/>
<glyph glyph-name="braceright" horiz-adv-x="303" unicode="}" d="M82 509l-77 77h-6v134h123q63 0 88 -46l63 -63q26 -26 26 -71v-249l70 -70v-128q-38 0 -54 -12.5t-16 -40.5v-266q0 -46 -25.5 -71.5t-71.5 -25.5h-120l-77 77h-6v134h76q10 0 10 10v266q0 50 30 72q-30 20 -30 74v199h-3zM272 190v94q-38 0 -54 16t-16 54v266 q0 38 -21 59t-59 21h-103v-94h56q30 0 30 -30v-266q0 -58 60 -73q-60 -15 -60 -73v-266q0 -30 -30 -30h-56v-94h103q38 0 59 21t21 59v266q0 38 16 54t54 16z"/>
<glyph glyph-name="asciitilde" horiz-adv-x="606" unicode="~" d="M461 382l120 -61l-2 -5l78 -77q-15 -49 -59 -94t-110 -45q-80 0 -126 46l-46 46q-16 9 -35 9q-31 0 -58 -73l-114 59l-72 72l-12 6q15 51 60.5 97.5t112.5 46.5q40 0 70 -11t43.5 -22.5t30.5 -31.5l9 -11l10 -10q17 -15 44 -15q29 0 56 74zM557 310l-84 44 q-24 -66 -68 -66q-30 0 -51.5 16t-33.5 34.5t-43 34.5t-79 16q-60 0 -98.5 -36.5t-50.5 -76.5l84 -44q24 66 68 66q30 0 51.5 -16t33.5 -34.5t43 -34.5t79 -16q60 0 98.5 36.5t50.5 76.5z"/>
<glyph glyph-name="exclamdown" horiz-adv-x="217" unicode="¡" d="M31 565v155h155v-6l77 -77v-149h-95l74 -74l22 -511h-151l-77 77h-6l22 517h53l-68 68h-6zM51 700v-115h115v115h-115zM71 477l-20 -477h115l-20 477h-75z"/>
<glyph glyph-name="cent" horiz-adv-x="410" unicode="¢" d="M337 507v-41q14 -13 24 -28l62 -61q42 -42 42 -126v-37h-153l-54 54q-1 -5 -1 -17v-68h131v-6l77 -77v-37q0 -144 -128 -166v-90h-104l-77 77h-6v50l-61 61q-67 40 -67 148v188q0 145 128 168v91h110v-6zM249 331v-20h119v20q0 136 -128 151v88h-70v-88 q-128 -15 -128 -151v-188q0 -138 128 -151v-88h70v88q128 13 128 151v20h-119v-20q0 -32 -9 -44.5t-35 -12.5t-35.5 12.5t-9.5 44.5v188q0 32 9.5 44.5t35.5 12.5t35 -12.5t9 -44.5z"/>
<glyph glyph-name="sterling" horiz-adv-x="473" unicode="£" d="M311 467v-28h41v-6l77 -77v-148h-118v-10h160v-6l77 -77q0 -119 -53.5 -165.5t-154.5 -46.5h-259l-77 77h-6v148q2 1 5.5 3t13.5 11t18.5 20.5t17 32t12.5 45.5l-44 45h-6v154h53v108q0 93 53 138t138 45q112 0 160 -71l62 -61q46 -46 46 -131v-37h-161l-54 53 q-1 -4 -1 -16zM451 178h-127q0 -32 -18 -48t-46 -16h-86q4 4 11 12.5t18 42t11 74.5v62h118v114h-118v128q0 57 45 57q44 0 44 -57v-20h127v20q0 83 -47 123t-124 40t-124 -40t-47 -123v-128h-53v-114h53v-22q0 -39 -7 -70.5t-17.5 -49t-21 -29.5t-17.5 -16l-7 -4v-114h242 q93 0 142 39t49 139z"/>
<glyph glyph-name="currency" horiz-adv-x="518" unicode="¤" d="M329 320q-27 -3 -44 -23t-19 -48q26 3 43.5 23t19.5 48zM186 6l-78 78l-2 -2l-89 89l50 50q-25 48 -25 103q0 57 25 103l-50 50l89 89l50 -50q43 25 103 25q57 0 102 -26l51 51l89 -89l-2 -2l78 -78l-51 -51q27 -46 27 -102q0 -58 -26 -103l50 -50l-85 -85l-50 50 q-47 -26 -103 -26q-53 0 -103 26zM364 157l48 -47l61 61l-48 47q31 48 31 106t-31 105l48 48l-61 61l-48 -48q-46 31 -105 31q-58 0 -106 -31l-47 48l-61 -61l47 -48q-30 -47 -30 -105q0 -57 30 -106l-47 -47l61 -61l47 47q49 -30 106 -30q58 0 105 30zM169 324 q0 40 25.5 67.5t64.5 27.5t64.5 -27.5t25.5 -67.5t-25.5 -67.5t-64.5 -27.5t-64.5 27.5t-25.5 67.5z"/>
<glyph glyph-name="yen" horiz-adv-x="416" unicode="¥" d="M30 224v103h71q-4 13 -51.5 164.5t-70.5 228.5h168l2 -8l75 -75l12 -56l33 139h168l-2 -6l78 -77l-108 -345l48 -48v-97h-21l21 -21v-97h-88v-126h-154l-77 77h-6v49h-15l-77 77h-6v103h21l-15 15h-6zM50 307v-63h98v-55h-98v-63h98v-126h120v126h88v63h-88v55h88v63h-69 l123 393h-124l-78 -329l-78 329h-124l122 -393h-78z"/>
<glyph glyph-name="brokenbar" horiz-adv-x="207" unicode="¦" d="M35 181h137v-6l77 -77v-421h-131l-77 77h-6v427zM118 216l-77 77h-6v427h137v-6l77 -77v-421h-131zM55 313h97v387h-97v-387zM152 161h-97v-387h97v387z"/>
<glyph glyph-name="section" horiz-adv-x="398" unicode="§" d="M236 197v-12q3 7 3 15v10q-3 -6 -3 -13zM219 -36q0 24 -14 41l-68 65l-13 13l-69 65q-42 41 -42 116v6q0 79 46 120l-3 2q-43 43 -43 118v42q0 178 188 178q114 0 158 -70l59 -58q44 -44 44 -129v-86h-160l-46 46v-3q0 -16 4 -27l83 -77q11 -11 19 -24l1 -1l58 -57 q41 -40 41 -114v-6q0 -82 -48 -121l8 -7q40 -40 40 -112v-42q0 -175 -185 -175q-92 0 -137 45l-60 60q-67 42 -67 149v89h166v-6zM239 -36v-47q0 -37 -42 -37q-38 0 -38 37v73h-126v-69q0 -157 164 -157q84 0 126 41t42 117v42q0 67 -36 102l-21 19q57 35 57 119v6 q0 67 -36 102l-138 129q-32 29 -32 69v47q0 37 42 37q38 0 38 -37v-73h126v69q0 157 -164 157q-84 0 -126 -41t-42 -117v-42q0 -67 36 -102l21 -20q-57 -33 -57 -118v-6q0 -67 36 -102l138 -129q32 -29 32 -69zM161 322l46 -43q52 -47 52 -69v-10q0 -30 -22 -48l-46 43 q-52 47 -52 69v8v2v3q1 28 22 45z"/>
<glyph glyph-name="dieresis" horiz-adv-x="348" unicode="¨" d="M20 572v148h148v-6l12 -12v18h148v-6l77 -77v-142h-142l-18 18v-18h-142l-77 77h-6zM40 700v-108h108v108h-108zM200 700v-108h108v108h-108z"/>
<glyph glyph-name="copyright" horiz-adv-x="564" unicode="©" d="M411 445l-4 2l6 -6q0 2 -2 4zM15 377q0 111 77 189t190 78q66 0 122.5 -29.5t93.5 -80.5l51 -50q77 -77 77 -187q0 -109 -76.5 -186.5t-187.5 -77.5q-110 0 -187 77l-50 50q-51 37 -80.5 94t-29.5 123zM35 377q0 -103 71.5 -175t175.5 -72t175.5 72t71.5 175t-71.5 175 t-175.5 72t-175.5 -72t-71.5 -175zM118 377q0 74 47.5 124.5t116.5 50.5t116.5 -50.5t47.5 -124.5t-47.5 -124.5t-116.5 -50.5t-116.5 50.5t-47.5 124.5zM306 425v-12h56v12q0 44 -20 62.5t-60 18.5q-39 0 -59 -18.5t-20 -62.5v-99q0 -44 20 -63t59 -19q40 0 60 18.5 t20 63.5v11h-56v-11q0 -17 -4.5 -23.5t-19.5 -6.5q-14 0 -18.5 6.5t-4.5 23.5v99q0 17 4.5 23.5t18.5 6.5q15 0 19.5 -6.5t4.5 -23.5z"/>
<glyph glyph-name="ordfeminine" horiz-adv-x="254" unicode="ª" d="M113 336l-64 64q-44 22 -44 84q0 59 35 89l-21 22h-6q0 58 28 94.5t83 36.5q75 0 100 -45l65 -64q28 -28 28 -92v-134q0 -9 3.5 -27t7.5 -31l3 -13h-104l-8 7q-21 -13 -51 -13q-33 0 -55 22zM160 417h69q-9 32 -9 54v134q0 54 -23 77.5t-73 23.5q-45 0 -68 -25t-23 -66 h65q0 34 26 34q15 0 20.5 -11.5t5.5 -44.5v-1q-63 -9 -94 -32t-31 -76q0 -32 17.5 -52.5t45.5 -20.5q36 0 64 30zM150 544v-60q-13 -21 -29 -21q-23 0 -23 30q0 25 17.5 38t34.5 13z"/>
<glyph glyph-name="guillemotleft" horiz-adv-x="391" unicode="«" d="M263 458l100 -16h1l-1 -1l80 -79l-121 -205l145 -218h-122l-12 12l8 -12h-122l-77 77h-5l-122 186v70l122 186l100 -16h1l-1 -1l9 -9zM230 438h-82l-113 -172v-58l113 -172h82l-134 201zM356 438h-82l-113 -172v-58l113 -172h82l-134 201z"/>
<glyph glyph-name="logicalnot" horiz-adv-x="400" unicode="¬" d="M32 276v136h336v-6l77 -77v-223h-152l-77 77h-6v16h-95l-77 77h-6zM52 392v-96h178v-93h118v189h-296z"/>
<glyph glyph-name="registered" horiz-adv-x="564" unicode="®" d="M411 446h-1l2 -2q0 1 -1 2zM365 333l38 -40l1 1zM15 377q0 111 77 189t190 78q66 0 122.5 -29.5t93.5 -80.5l51 -50q77 -77 77 -187q0 -109 -76.5 -186.5t-187.5 -77.5q-110 0 -187 77l-50 50q-51 37 -80.5 94t-29.5 123zM35 377q0 -103 71.5 -175t175.5 -72t175.5 72 t71.5 175t-71.5 175t-175.5 72t-175.5 -72t-71.5 -175zM118 377q0 74 47.5 124.5t116.5 50.5t116.5 -50.5t47.5 -124.5t-47.5 -124.5t-116.5 -50.5t-116.5 50.5t-47.5 124.5zM282 347l26 -100h56l-31 107q20 12 20 41v65q0 43 -52 43h-89v-256h56v100h14zM268 454h18 q11 0 11 -11v-42q0 -11 -11 -11h-18v64z"/>
<glyph glyph-name="degree" horiz-adv-x="313" unicode="°" d="M35 608q0 50 35.5 86t85.5 36q65 0 102 -57l62 -61q35 -35 35 -84t-35 -83.5t-84 -34.5q-48 0 -83 35l-59 58q-27 16 -43 44t-16 61zM55 608q0 -42 29.5 -71.5t71.5 -29.5t72 29.5t30 71.5t-30 72t-72 30t-71.5 -30t-29.5 -72zM115 608q0 17 12 29t29 12t29 -12t12 -29 t-12 -29t-29 -12t-29 12t-12 29z"/>
<glyph glyph-name="plusminus" horiz-adv-x="400" unicode="±" d="M388 113v-6l77 -77v-127h-370l-77 77h-6v133h159l-26 26h-6v30h-24l-77 77h-6v123h107v106h123v-6l77 -77v-23h29v-6l77 -77v-117h-106v-56h49zM242 455h-83v-106h-107v-83h107v-107h83v107h106v83h-106v106zM368 0v93h-336v-93h336z"/>
<glyph glyph-name="twosuperior" horiz-adv-x="230" unicode="²" d="M7 441l65 89l-59 61h-6q0 74 32 104.5t75 30.5q65 0 91 -45l65 -65q27 -27 27 -80q0 -48 -37 -109l-7 -10l46 -46v-96h-209l-77 77h-6v89zM113 553l-86 -119v-62h175v62h-93l57 83q34 57 34 99q0 49 -25 69.5t-61 20.5q-35 0 -61 -21.5t-26 -73.5h66q0 32 21 32 q20 0 20 -22q0 -36 -21 -68z"/>
<glyph glyph-name="threesuperior" horiz-adv-x="244" unicode="³" d="M7 459v44h70v25l-62 62h-6q0 75 34.5 105.5t78.5 30.5q68 0 95 -47l65 -64q27 -27 27 -77q0 -43 -24 -64l6 -5q22 -22 22 -65v-26q0 -53 -30.5 -82t-80.5 -29q-51 0 -82 31l-64 63q-49 31 -49 98zM27 483v-24q0 -45 27 -70t68 -25q42 0 68 24.5t26 69.5v26q0 56 -47 69 q43 11 43 65q0 45 -25.5 66.5t-64.5 21.5q-36 0 -64.5 -21.5t-28.5 -74.5h68q0 35 25 35q23 0 23 -34q0 -18 -10 -25t-38 -7v-59q28 0 40 -7.5t12 -28.5v-29q0 -30 -27 -30t-27 30v28h-68z"/>
<glyph glyph-name="acute" horiz-adv-x="255" unicode="´" d="M293 720l-4 -5l78 -78l-153 -180h-127l-77 77h-8l98 186h193zM126 554l124 146h-138l-77 -146h91z"/>
<glyph glyph-name="mu" d="M169 494v-6l38 -38v44h158v-6l77 -77v-508h-152l-18 18q-3 -3 -26 -17v-227h-152l-77 77h-6v740h158zM149 137v337h-118v-700h118v222q35 13 78 62v-58h118v474h-118v-330q-31 -41 -51 -41q-27 0 -27 34z" unicode="µ"/>
<glyph glyph-name="paragraph" horiz-adv-x="550" unicode="¶" d="M29 506q0 94 42.5 154t125.5 60h341v-6l77 -77v-125h-46v-835h-131l-47 47v-47h-131l-77 77h-6v497q-5 3 -8 8l-59 59q-81 53 -81 188zM49 506q0 -85 37.5 -139t110.5 -54v-539h97v835h81v-835h97v835h46v91h-321q-73 0 -110.5 -54.5t-37.5 -139.5z"/>
<glyph glyph-name="periodcentered" horiz-adv-x="177" unicode="·" d="M11 220v155h155v-6l77 -77v-149h-149l-77 77h-6zM31 355v-115h115v115h-115z"/>
<glyph glyph-name="cedilla" horiz-adv-x="249" unicode="¸" d="M25 -77l34 113h94l-2 -6l78 -77l-3 -8l53 -53q22 -22 22 -64q0 -38 -22 -65t-70 -27t-74 26l-66 66q-44 27 -44 93h8l-1 1zM73 16l-23 -78l46 -10q10 10 29 10q21 0 21 -27q0 -21 -4 -30.5t-17 -9.5q-26 0 -26 30h-54q0 -15 5 -28.5t25 -26.5t54 -13q39 0 57 22t18 53 q0 66 -57 66q-13 0 -24 -5t-16 -9l-5 -5l23 61h-52z"/>
<glyph glyph-name="onesuperior" horiz-adv-x="239" unicode="¹" d="M90 275l-77 77h-6v102h59v74l-54 53h-5v97q52 12 65 42h101v-6l77 -77v-208l58 -58v-96h-218zM27 372h184v62h-58v266h-67q-11 -28 -59 -39v-58l59 7v-176h-59v-62z"/>
<glyph glyph-name="ordmasculine" horiz-adv-x="241" unicode="º" d="M120 488h1l-5 5v-1zM116 342l-64 63q-47 26 -47 100v107q0 114 116 114q75 0 100 -48l64 -63q28 -28 28 -83v-107q0 -111 -112 -111q-57 0 -85 28zM216 505v107q0 94 -95 94q-96 0 -96 -94v-107q0 -94 96 -94q95 0 95 94zM121 649q25 0 25 -28v-125q0 -28 -25 -28t-25 28 v125q0 28 25 28z"/>
<glyph glyph-name="guillemotright" horiz-adv-x="391" unicode="»" d="M-1 458h255l9 -15l69 -68l121 -185v-66l-121 -185h-122l-3 3l-1 -3h-122l-77 77h-8l146 221zM243 438h-82l134 -201l-134 -201h82l113 172v58zM117 438h-82l134 -201l-134 -201h82l113 172v58z"/>
<glyph glyph-name="onequarter" horiz-adv-x="527" unicode="¼" d="M250 637v-208l6 -7l153 298h123l-3 -6l78 -77l-149 -289h20v-6l77 -77v-179l20 -20v-96h-20v-67h-101l-67 67h-37l-57 56l-63 -123h-116l-77 77h-8l151 295h-90l-77 77h-6v102h59v74l-54 53h-5v97q52 12 65 42h101v-6zM62 0h78l359 700h-78zM391 0h67v67h20v62h-20v199 h-79l-92 -199v-62h104v-67zM27 372h184v62h-58v266h-67q-11 -28 -59 -39v-58l59 7v-176h-59v-62zM391 129h-42l42 91v-91z"/>
<glyph glyph-name="onehalf" horiz-adv-x="527" unicode="½" d="M363 162l-14 -28l17 24zM250 637v-208l6 -7l153 298h123l-3 -6l78 -77l-150 -292q25 -11 42 -36l65 -65q27 -27 27 -80q0 -48 -37 -109l-7 -10l46 -46v-96h-209l-77 77h-6v61l-71 -138h-116l-77 77h-8l151 295h-90l-77 77h-6v102h59v74l-54 53h-5v97q52 12 65 42h101v-6z M62 0h78l359 700h-78zM407 181l-86 -119v-62h175v62h-93l57 83q34 57 34 99q0 49 -25 69.5t-61 20.5q-35 0 -61 -21.5t-26 -73.5h66q0 32 21 32q20 0 20 -22q0 -36 -21 -68zM27 372h184v62h-58v266h-67q-11 -28 -59 -39v-58l59 7v-176h-59v-62z"/>
<glyph glyph-name="threequarters" horiz-adv-x="528" unicode="¾" d="M7 459v44h70v25l-62 62h-6q0 75 34.5 105.5t78.5 30.5q68 0 95 -47l65 -64q27 -27 27 -77q0 -3 -0.5 -8.5t-0.5 -7.5l102 198h123l-3 -6l78 -77l-149 -289h20v-6l77 -77v-179l20 -20v-96h-20v-67h-101l-67 67h-37l-57 56l-63 -123h-116l-77 77h-8l148 288q-37 6 -58 30 l-64 63q-49 31 -49 98zM63 0h78l359 700h-78zM392 0h67v67h20v62h-20v199h-79l-92 -199v-62h104v-67zM392 129h-42l42 91v-91zM27 483v-24q0 -45 27 -70t68 -25q42 0 68 24.5t26 69.5v26q0 56 -47 69q43 11 43 65q0 45 -25.5 66.5t-64.5 21.5q-36 0 -64.5 -21.5t-28.5 -74.5 h68q0 35 25 35q23 0 23 -34q0 -18 -10 -25t-38 -7v-59q28 0 40 -7.5t12 -28.5v-29q0 -30 -27 -30t-27 30v28h-68z"/>
<glyph glyph-name="questiondown" horiz-adv-x="400" unicode="¿" d="M122 565v155h155v-6l77 -77v-149h-66l65 -65v-119l2 -4l53 -52q66 -66 66 -167q0 -90 -52 -139t-142 -49q-88 0 -139 51l-59 59q-79 54 -79 182h164v-6l59 -60q14 14 14 46q0 21 -6 38l-28 9l-76 75l-7 2v217h64l-59 59h-6zM142 700v-115h115v115h-115zM256 357v129h-113 v-180q5 -1 13 -3t28 -12t35.5 -24t28 -41t12.5 -61q0 -75 -60 -75q-26 0 -39.5 15.5t-13.5 59.5h-124q0 -85 47 -130t130 -45q82 0 129.5 45t47.5 126q0 41 -12.5 76t-30.5 56t-35.5 36.5t-30.5 21.5z"/>
<glyph glyph-name="Agrave" d="M165 760l-158 186h193l5 -11l73 -72l95 -180h-49l46 -46l99 -734h-156l-77 77h-4l-9 -77h-156l-77 77h-6l99 740h126l-40 40h-4zM275 700h-174l-94 -700h121l15 120h90l15 -120h121zM188 529l29 -285h-58zM50 926l124 -146h91l-77 146h-138z" unicode="À"/>
<glyph glyph-name="Aacute" d="M371 946l-4 -5l78 -78l-138 -163l63 -63l99 -734h-156l-77 77h-4l-9 -77h-156l-77 77h-6l99 740h45l-40 40h-8l98 186h193zM275 700h-174l-94 -700h121l15 120h90l15 -120h121zM188 529l29 -285h-58zM204 780l124 146h-138l-77 -146h91z" unicode="Á"/>
<glyph glyph-name="Acircumflex" d="M242 946l10 -15l68 -68l119 -180h-115l46 -46l99 -734h-156l-77 77h-4l-9 -77h-156l-77 77h-6l96 718l-62 62h-9l123 186h110zM275 700h-174l-94 -700h121l15 120h90l15 -120h121zM188 529l29 -285h-58zM328 780l-97 146h-88l-97 -146h101l40 69l40 -69h101z" unicode="Â"/>
<glyph glyph-name="Atilde" d="M208 730q-7 0 -15 -10h43q-14 10 -28 10zM281 923l76 -79l-1 -1v-1l6 -5l72 -74q-9 -30 -36.5 -55.5t-67.5 -25.5h-5l45 -45l99 -734h-156l-77 77h-4l-9 -77h-156l-77 77h-6l99 740h51l-38 37q-1 -1 -1 -3l-76 78q10 32 38 58.5t69 26.5q8 0 15 -0.5t12.5 -1.5t11.5 -3 t9.5 -2.5t9 -3.5t7 -4t6.5 -5t6 -4.5t6 -4.5l5 -4q15 -15 34 -15q14 0 33 54zM275 700h-174l-94 -700h121l15 120h90l15 -120h121zM188 529l29 -285h-58zM335 838l-46 47q-13 -36 -41 -36q-24 0 -51 24t-71 24q-34 0 -56.5 -18.5t-28.5 -40.5l46 -47q12 36 41 36 q22 0 36 -12t33 -24t53 -12t56.5 18.5t28.5 40.5z" unicode="Ã"/>
<glyph glyph-name="Adieresis" d="M34 748v148h148v-6l12 -12v18h148v-6l77 -77v-142h-83l34 -34l99 -734h-156l-77 77h-4l-9 -77h-156l-77 77h-6l97 727l-41 41h-6zM275 700h-174l-94 -700h121l15 120h90l15 -120h121zM188 529l29 -285h-58zM54 876v-108h108v108h-108zM214 876v-108h108v108h-108z" unicode="Ä"/>
<glyph glyph-name="Aring" d="M81 836q0 44 31.5 75t74.5 31q60 0 92 -54l60 -60q31 -31 31 -72q0 -48 -39 -80l39 -39l99 -734h-156l-77 77h-4l-9 -77h-156l-77 77h-6l99 740h74l-27 26q-49 32 -49 90zM275 700h-174l-94 -700h121l15 120h90l15 -120h121zM188 529l29 -285h-58zM101 836 q0 -35 25.5 -60.5t60.5 -25.5t60.5 25.5t25.5 60.5t-25.5 60.5t-60.5 25.5t-60.5 -25.5t-25.5 -60.5zM156 836q0 36 31 36t31 -36t-31 -36t-31 36z" unicode="Å"/>
<glyph glyph-name="AE" horiz-adv-x="552" unicode="Æ" d="M83 720h466v-6l77 -77v-150h-232q4 -26 5 -38h106v-6l77 -77v-150h-152q6 -50 10 -80h113v-6l77 -77v-150h-313l-77 77h-6l-1 5l-10 -82h-156l-77 77h-6zM529 700h-428l-94 -700h121l15 120h92l17 -120h281v116h-176l-26 197h154v116h-170l-21 155h235v116zM190 529 l29 -285h-58z"/>
<glyph glyph-name="Ccedilla" horiz-adv-x="420" unicode="Ç" d="M115 -87l13 44l-43 43q-68 42 -68 148v404q0 178 193 178q122 0 167 -73l59 -58q44 -44 44 -127v-84h-160l-60 60v-213h143v-6l77 -77v-84q0 -143 -128 -169l17 -17q22 -22 22 -64q0 -38 -22 -65t-70 -27t-74 26l-66 66q-44 27 -44 93h8l-1 1zM209 -10q-30 0 -50 4 l-19 -66l46 -10q10 10 29 10q21 0 21 -27q0 -21 -4 -30.5t-17 -9.5q-26 0 -26 30h-54q0 -15 5 -28.5t25 -26.5t54 -13q39 0 57 22t18 53q0 66 -57 66q-13 0 -24 -5t-16 -9l-5 -5z"/>
<glyph glyph-name="Egrave" horiz-adv-x="370" unicode="È" d="M160 760l-158 186h193l5 -11l73 -72l75 -143h19v-6l77 -77v-150h-150v-38h29v-6l77 -77v-150h-106v-80h77v-6l77 -77v-150h-314l-77 77h-6v740h153l-40 40h-4zM347 700h-276v-700h280v116h-154v197h106v116h-106v155h150v116zM45 926l124 -146h91l-77 146h-138z"/>
<glyph glyph-name="Eacute" horiz-adv-x="344" unicode="É" d="M367 946l-4 -5l78 -78l-122 -143h22v-6l77 -77v-150h-150v-38h29v-6l77 -77v-150h-106v-80h77v-6l77 -77v-150h-314l-77 77h-6v740h99l-40 40h-8l98 186h193zM321 700h-276v-700h280v116h-154v197h106v116h-106v155h150v116zM200 780l124 146h-138l-77 -146h91z"/>
<glyph glyph-name="Ecircumflex" horiz-adv-x="347" unicode="Ê" d="M241 946l10 -15l68 -68l119 -180h-63l46 -46v-150h-150v-38h29v-6l77 -77v-150h-106v-80h77v-6l77 -77v-150h-314l-77 77h-6v740h29l-40 40h-9l123 186h110zM324 700h-276v-700h280v116h-154v197h106v116h-106v155h150v116zM327 780l-97 146h-88l-97 -146h101l40 69 l40 -69h101z"/>
<glyph glyph-name="Edieresis" horiz-adv-x="344" unicode="Ë" d="M29 748v148h148v-6l12 -12v18h148v-6l77 -77v-142h-30l34 -34v-150h-150v-38h29v-6l77 -77v-150h-106v-80h77v-6l77 -77v-150h-314l-77 77h-6v740h38l-28 28h-6zM321 700h-276v-700h280v116h-154v197h106v116h-106v155h150v116zM49 876v-108h108v108h-108zM209 876v-108 h108v108h-108z"/>
<glyph glyph-name="Igrave" horiz-adv-x="216" unicode="Ì" d="M69 760l-158 186h193l5 -11l73 -72l95 -180h-56l46 -46v-734h-160l-77 77h-6v740h89l-40 40h-4zM170 0v700h-126v-700h126zM-46 926l124 -146h91l-77 146h-138z"/>
<glyph glyph-name="Iacute" horiz-adv-x="216" unicode="Í" d="M305 946l-4 -5l78 -78l-153 -180h-4l46 -46v-734h-160l-77 77h-6v740h37l-40 40h-8l98 186h193zM171 0v700h-126v-700h126zM138 780l124 146h-138l-77 -146h91z"/>
<glyph glyph-name="Icircumflex" horiz-adv-x="216" unicode="Î" d="M163 946l10 -15l68 -68l119 -180h-138l46 -46v-734h-160l-77 77h-6v703h-9l-77 77h-9l123 186h110zM171 0v700h-126v-700h126zM249 780l-97 146h-88l-97 -146h101l40 69l40 -69h101z"/>
<glyph glyph-name="Idieresis" horiz-adv-x="216" unicode="Ï" d="M-46 748v148h148v-6l12 -12v18h148v-6l77 -77v-142h-105l34 -34v-734h-160l-77 77h-6v703l-65 65h-6zM171 0v700h-126v-700h126zM-26 876v-108h108v108h-108zM134 876v-108h108v108h-108z"/>
<glyph glyph-name="Eth" horiz-adv-x="425" unicode="Ð" d="M-28 274v152h63v294h245q87 0 120 -55l62 -62q34 -34 34 -102v-462q0 -136 -136 -136h-242l-77 77h-6v237l-57 57h-6zM-8 406v-112h63v-294h225q119 0 119 119v462q0 119 -119 119h-225v-294h-63zM253 116h-72v468h72q11 0 15.5 -4.5t4.5 -15.5v-428q0 -11 -4.5 -15.5 t-15.5 -4.5z"/>
<glyph glyph-name="Ntilde" horiz-adv-x="461" unicode="Ñ" d="M221 680l-34 34v-2l76 -75l7 -21v104h13q-14 10 -28 10q-17 0 -34 -50zM328 923l76 -79v-1l-1 -1l6 -5l72 -74q-11 -34 -38 -57l70 -69v-734h-155l-77 77h-5l-8 25v-102h-160l-77 77h-6v740h156l-38 37q-1 -1 -1 -3l-76 78q10 32 38 58.5t69 26.5q8 0 15 -0.5t12.5 -1.5 t11.5 -3t9.5 -2.5t9 -3.5t7 -4t6.5 -5t6 -4.5t6 -4.5l5 -4q15 -15 34 -15q14 0 33 54zM290 700v-352l-119 352h-126v-700h126v371l119 -371h126v700h-126zM382 838l-46 47q-13 -36 -41 -36q-24 0 -51 24t-71 24q-34 0 -56.5 -18.5t-28.5 -40.5l46 -47q12 36 41 36 q22 0 36 -12t33 -24t53 -12t56.5 18.5t28.5 40.5z"/>
<glyph glyph-name="Ograve" horiz-adv-x="410" unicode="Ò" d="M182 760l-158 186h193l5 -11l73 -72l95 -180h-43q10 -10 18 -23l61 -60q44 -44 44 -128v-404q0 -175 -185 -175q-94 0 -141 47l-60 60q-67 42 -67 148v404q0 178 188 178h10l-29 30h-4zM373 148v404q0 76 -42 117t-126 41t-126 -41t-42 -117v-404q0 -76 42 -117t126 -41 t126 41t42 117zM205 594q42 0 42 -37v-414q0 -37 -42 -37t-42 37v414q0 37 42 37zM67 926l124 -146h91l-77 146h-138z"/>
<glyph glyph-name="Oacute" horiz-adv-x="410" unicode="Ó" d="M385 946l-4 -5l78 -78l-137 -161q26 -16 43 -42l61 -60q44 -44 44 -128v-404q0 -175 -185 -175q-94 0 -141 47l-60 60q-67 42 -67 148v404q0 141 121 170l-36 38h-8l98 186h193zM373 148v404q0 76 -42 117t-126 41t-126 -41t-42 -117v-404q0 -76 42 -117t126 -41t126 41 t42 117zM205 594q42 0 42 -37v-414q0 -37 -42 -37t-42 37v414q0 37 42 37zM218 780l124 146h-138l-77 -146h91z"/>
<glyph glyph-name="Ocircumflex" horiz-adv-x="410" unicode="Ô" d="M260 946l10 -15l68 -68l119 -180h-110q10 -10 18 -23l61 -60q44 -44 44 -128v-404q0 -175 -185 -175q-94 0 -141 47l-60 60q-67 42 -67 148v404q0 109 74 152l-55 56h-9l123 186h110zM373 148v404q0 76 -42 117t-126 41t-126 -41t-42 -117v-404q0 -76 42 -117t126 -41 t126 41t42 117zM205 594q42 0 42 -37v-414q0 -37 -42 -37t-42 37v414q0 37 42 37zM346 780l-97 146h-88l-97 -146h101l40 69l40 -69h101z"/>
<glyph glyph-name="Otilde" horiz-adv-x="410" unicode="Õ" d="M226 730q-3 0 -4 -1q11 0 16 -1q-6 2 -12 2zM299 923l76 -79l-1 -1v-1l6 -5l72 -74q-9 -30 -36.5 -55.5t-67.5 -25.5q9 -9 17 -22l61 -60q44 -44 44 -128v-404q0 -175 -185 -175q-94 0 -141 47l-60 60q-67 42 -67 148v404q0 147 130 172l-33 33q-1 -1 -1 -3l-76 78 q10 32 38 58.5t69 26.5q8 0 15 -0.5t12.5 -1.5t11.5 -3t9.5 -2.5t9 -3.5t7 -4t6.5 -5t6 -4.5t6 -4.5l5 -4q15 -15 34 -15q14 0 33 54zM373 148v404q0 76 -42 117t-126 41t-126 -41t-42 -117v-404q0 -76 42 -117t126 -41t126 41t42 117zM205 594q42 0 42 -37v-414 q0 -37 -42 -37t-42 37v414q0 37 42 37zM353 838l-46 47q-13 -36 -41 -36q-24 0 -51 24t-71 24q-34 0 -56.5 -18.5t-28.5 -40.5l46 -47q12 36 41 36q22 0 36 -12t33 -24t53 -12t56.5 18.5t28.5 40.5z"/>
<glyph glyph-name="Odieresis" horiz-adv-x="410" unicode="Ö" d="M51 748v148h148v-6l12 -12v18h148v-6l77 -77v-142h-78l7 -11l61 -60q44 -44 44 -128v-404q0 -175 -185 -175q-94 0 -141 47l-60 60q-67 42 -67 148v404q0 114 79 155l-39 41h-6zM373 148v404q0 76 -42 117t-126 41t-126 -41t-42 -117v-404q0 -76 42 -117t126 -41t126 41 t42 117zM205 594q42 0 42 -37v-414q0 -37 -42 -37t-42 37v414q0 37 42 37zM71 876v-108h108v108h-108zM231 876v-108h108v108h-108z"/>
<glyph glyph-name="multiply" horiz-adv-x="400" unicode="×" d="M276 469l86 -87l-2 -2l78 -78l-75 -75l75 -75l-82 -83l-76 75l-75 -75l-79 77l-1 -1l-87 86l76 76l-76 76l87 86l75 -76zM334 382l-58 59l-76 -76l-75 76l-59 -58l76 -76l-76 -76l59 -58l75 75l76 -75l58 59l-75 75z"/>
<glyph glyph-name="Oslash" horiz-adv-x="410" unicode="Ø" d="M50 -61l-69 69l-15 9l53 94q-2 20 -2 37v404q0 178 188 178q90 0 142 -49q4 7 12.5 23t11.5 21l73 -42l-2 -4l78 -78l-52 -91q2 -22 2 -38v-404q0 -175 -185 -175q-93 0 -141 48l-2 2l-25 -43zM-7 26l38 -22l29 50q39 -64 145 -64q84 0 126 41t42 117v404q0 20 -3 40 l47 82l-38 22l-29 -51q-40 65 -145 65q-84 0 -126 -41t-42 -117v-404q0 -22 3 -40zM205 106q-42 0 -42 37v90l84 146v-236q0 -37 -42 -37zM205 594q42 0 42 -37v-90l-84 -146v236q0 37 42 37z"/>
<glyph glyph-name="Ugrave" horiz-adv-x="420" unicode="Ù" d="M398 720v-6l77 -77v-569q0 -175 -185 -175q-94 0 -141 47l-60 60q-67 42 -67 148v572h166v-6l44 -44v38l-52 52h-4l-158 186h193l5 -11l73 -72l75 -143h34zM378 148v552h-126v-557q0 -37 -42 -37t-42 37v557h-126v-552q0 -76 42 -117t126 -41t126 41t42 117zM61 926 l124 -146h91l-77 146h-138z"/>
<glyph glyph-name="Uacute" horiz-adv-x="420" unicode="Ú" d="M219 683l13 -13v13h-13zM398 720v-6l77 -77v-569q0 -175 -185 -175q-94 0 -141 47l-60 60q-67 42 -67 148v572h138l-40 40h-8l98 186h193l-4 -5l78 -78l-122 -143h43zM378 148v552h-126v-557q0 -37 -42 -37t-42 37v557h-126v-552q0 -76 42 -117t126 -41t126 41t42 117z M236 780l124 146h-138l-77 -146h91z"/>
<glyph glyph-name="Ucircumflex" horiz-adv-x="420" unicode="Û" d="M219 683l13 -13v13h-13zM265 946l10 -15l68 -68l119 -180h-33l46 -46v-569q0 -175 -185 -175q-94 0 -141 47l-60 60q-67 42 -67 148v572h59l-40 40h-9l123 186h110zM378 148v552h-126v-557q0 -37 -42 -37t-42 37v557h-126v-552q0 -76 42 -117t126 -41t126 41t42 117z M351 780l-97 146h-88l-97 -146h101l40 69l40 -69h101z"/>
<glyph glyph-name="Udieresis" horiz-adv-x="420" unicode="Ü" d="M231 671l1 -1v1h-1zM56 748v148h148v-6l12 -12v18h148v-6l77 -77v-142l34 -34v-569q0 -175 -185 -175q-94 0 -141 47l-60 60q-67 42 -67 148v572h68l-28 28h-6zM378 148v552h-126v-557q0 -37 -42 -37t-42 37v557h-126v-552q0 -76 42 -117t126 -41t126 41t42 117zM76 876 v-108h108v108h-108zM236 876v-108h108v108h-108z"/>
<glyph glyph-name="Yacute" horiz-adv-x="364" unicode="Ý" d="M166 683l-35 34l2 -5l75 -75l2 -11l14 57h-58zM372 946l-4 -5l78 -78l-122 -143h76l-2 -6l78 -77l-134 -485v-249h-160l-77 77h-6v251q-121 438 -135 489h165l-40 40h-8l98 186h193zM250 700l-68 -272l-68 272h-124l129 -466v-234h126v234l129 466h-124zM205 780l124 146 h-138l-77 -146h91z"/>
<glyph glyph-name="Thorn" horiz-adv-x="400" unicode="Þ" d="M268 637v-57q79 -3 107 -53l63 -62q33 -33 33 -104v-182q0 -69 -31.5 -102.5t-99.5 -33.5h-72v-140h-160l-77 77h-6v740h166v-6zM171 140h89q59 0 86.5 29t27.5 90v182q0 61 -27.5 90t-86.5 29h-89v140h-126v-700h126v140zM220 256h-49v188h49q32 0 32 -29v-130 q0 -29 -32 -29z"/>
<glyph glyph-name="germandbls" horiz-adv-x="404" unicode="ß" d="M-12 331v138h42v102q0 70 39.5 109.5t109.5 39.5h58q87 0 127 -62l60 -60q39 -39 39 -107v-74q0 -60 -33 -90l20 -19q26 -24 26 -75v-194q0 -136 -136 -136h-63l-4 4v-4h-160l-77 77h-6v315l-36 36h-6zM8 449v-98h42v-351h126v556q0 28 28 28h21q28 0 28 -28v-79 q0 -28 -28 -28h-11v-98h11q28 0 28 -28v-179q0 -28 -28 -28h-11v-116h46q119 0 119 119v194q0 73 -76 87q63 19 63 97v74q0 60 -34.5 94.5t-94.5 34.5h-58q-60 0 -94.5 -34.5t-34.5 -94.5v-122h-42z"/>
<glyph glyph-name="agrave" horiz-adv-x="378" unicode="à" d="M174 534l-158 186h193l5 -11l73 -72l95 -180h-57l13 -17l61 -61q44 -44 44 -145v-224q0 -16 5 -42.5t10 -45.5l5 -19h-150l-18 18q-38 -28 -91 -28q-50 0 -83 33l-61 61q-61 36 -61 126q0 102 66 149l-47 49h-6q0 87 43.5 140t128.5 53q4 0 12.5 -0.5t12.5 -0.5l-31 31 h-4zM244 0h117q-15 54 -15 90v224q0 91 -39 130.5t-123 39.5q-75 0 -113.5 -42t-38.5 -111h108q0 57 44 57q25 0 34.5 -19t9.5 -75v-1q-105 -16 -157 -54t-52 -126q0 -55 28.5 -89t76.5 -34q37 0 60.5 12.5t47.5 38.5zM228 213v-101q-23 -35 -48 -35q-40 0 -40 50 q0 41 30 63.5t58 22.5zM59 700l124 -146h91l-77 146h-138z"/>
<glyph glyph-name="aacute" horiz-adv-x="378" unicode="á" d="M360 720l-4 -5l78 -78l-135 -159q24 -13 39 -38l61 -61q44 -44 44 -145v-224q0 -16 5 -42.5t10 -45.5l5 -19h-150l-18 18q-38 -28 -91 -28q-50 0 -83 33l-61 61q-61 36 -61 126q0 102 66 149l-47 49h-6q0 67 26.5 115t78.5 67l-40 41h-8l98 186h193zM244 0h117 q-15 54 -15 90v224q0 91 -39 130.5t-123 39.5q-75 0 -113.5 -42t-38.5 -111h108q0 57 44 57q25 0 34.5 -19t9.5 -75v-1q-105 -16 -157 -54t-52 -126q0 -55 28.5 -89t76.5 -34q37 0 60.5 12.5t47.5 38.5zM228 213v-101q-23 -35 -48 -35q-40 0 -40 50q0 41 30 63.5t58 22.5z M193 554l124 146h-138l-77 -146h91z"/>
<glyph glyph-name="acircumflex" horiz-adv-x="378" unicode="â" d="M239 720l10 -15l68 -68l119 -180h-111l13 -17l61 -61q44 -44 44 -145v-224q0 -16 5 -42.5t10 -45.5l5 -19h-150l-18 18q-38 -28 -91 -28q-50 0 -83 33l-61 61q-61 36 -61 126q0 102 66 149l-47 49h-6q0 110 65 160l-62 63h-9l123 186h110zM244 0h117q-15 54 -15 90v224 q0 91 -39 130.5t-123 39.5q-75 0 -113.5 -42t-38.5 -111h108q0 57 44 57q25 0 34.5 -19t9.5 -75v-1q-105 -16 -157 -54t-52 -126q0 -55 28.5 -89t76.5 -34q37 0 60.5 12.5t47.5 38.5zM228 213v-101q-23 -35 -48 -35q-40 0 -40 50q0 41 30 63.5t58 22.5zM325 554l-97 146h-88 l-97 -146h101l40 69l40 -69h101z"/>
<glyph glyph-name="atilde" horiz-adv-x="378" unicode="ã" d="M278 677l76 -79v-1l-1 -1l6 -5l72 -74q-8 -27 -32 -51t-58 -29l58 -58q44 -44 44 -145v-224q0 -16 5 -42.5t10 -45.5l5 -19h-150l-18 18q-38 -28 -91 -28q-50 0 -83 33l-61 61q-61 36 -61 126q0 102 66 149l-47 49h-6q0 140 100 180l-19 20q-1 -1 -1 -3l-76 78 q10 32 38 58.5t69 26.5q8 0 15 -0.5t12.5 -1.5t11.5 -3t9.5 -2.5t9 -3.5t7 -4t6.5 -5t6 -4.5t6 -4.5l5 -4q15 -15 34 -15q14 0 33 54zM244 0h117q-15 54 -15 90v224q0 91 -39 130.5t-123 39.5q-75 0 -113.5 -42t-38.5 -111h108q0 57 44 57q25 0 34.5 -19t9.5 -75v-1 q-105 -16 -157 -54t-52 -126q0 -55 28.5 -89t76.5 -34q37 0 60.5 12.5t47.5 38.5zM228 213v-101q-23 -35 -48 -35q-40 0 -40 50q0 41 30 63.5t58 22.5zM332 592l-46 47q-13 -36 -41 -36q-24 0 -51 24t-71 24q-34 0 -56.5 -18.5t-28.5 -40.5l46 -47q12 36 41 36q22 0 36 -12 t33 -24t53 -12t56.5 18.5t28.5 40.5z"/>
<glyph glyph-name="adieresis" horiz-adv-x="378" unicode="ä" d="M32 522v148h148v-6l12 -12v18h148v-6l77 -77v-142h-82l3 -6l59 -58l2 -2q44 -44 44 -145v-224q0 -16 5 -42.5t10 -45.5l5 -19h-150l-18 18q-38 -28 -91 -28q-50 0 -83 33l-61 61q-61 36 -61 126q0 102 66 149l-47 49h-6q0 117 72 165l-46 46h-6zM244 0h117q-15 54 -15 90 v224q0 91 -39 130.5t-123 39.5q-75 0 -113.5 -42t-38.5 -111h108q0 57 44 57q25 0 34.5 -19t9.5 -75v-1q-105 -16 -157 -54t-52 -126q0 -55 28.5 -89t76.5 -34q37 0 60.5 12.5t47.5 38.5zM228 213v-101q-23 -35 -48 -35q-40 0 -40 50q0 41 30 63.5t58 22.5zM52 650v-108h108 v108h-108zM212 650v-108h108v108h-108z"/>
<glyph glyph-name="aring" horiz-adv-x="378" unicode="å" d="M77 614q0 44 31.5 75t74.5 31q60 0 92 -54l60 -60q31 -31 31 -72q0 -49 -39 -80q8 -8 12 -16l60 -59q44 -44 44 -145v-224q0 -16 5 -42.5t10 -45.5l5 -19h-150l-18 18q-38 -28 -91 -28q-50 0 -83 33l-61 61q-61 36 -61 126q0 102 66 149l-47 49h-6q0 77 34.5 128 t102.5 62l-24 24q-48 31 -48 89zM244 0h117q-15 54 -15 90v224q0 91 -39 130.5t-123 39.5q-75 0 -113.5 -42t-38.5 -111h108q0 57 44 57q25 0 34.5 -19t9.5 -75v-1q-105 -16 -157 -54t-52 -126q0 -55 28.5 -89t76.5 -34q37 0 60.5 12.5t47.5 38.5zM228 213v-101 q-23 -35 -48 -35q-40 0 -40 50q0 41 30 63.5t58 22.5zM97 614q0 -35 25.5 -60.5t60.5 -25.5t60.5 25.5t25.5 60.5t-25.5 60.5t-60.5 25.5t-60.5 -25.5t-25.5 -60.5zM152 614q0 36 31 36t31 -36t-31 -36t-31 36z"/>
<glyph glyph-name="ae" horiz-adv-x="581" unicode="æ" d="M121 -74l-61 61q-61 36 -61 126q0 102 66 149l-47 49h-6q0 87 43.5 140t128.5 53q61 0 105 -22q48 22 102 22q111 0 154 -66l63 -62q43 -43 43 -130v-137h-34l34 -34v-23q0 -159 -180 -159q-91 0 -132 41l-14 14q-28 -29 -53.5 -42t-67.5 -13q-50 0 -83 33zM391 86 q-44 0 -45 42v78h208v120q0 158 -163 158q-62 0 -103 -25q-37 25 -104 25q-75 0 -113.5 -42t-38.5 -111h108q0 57 44 57q25 0 34.5 -19t9.5 -75v-1q-105 -16 -157 -54t-52 -126q0 -55 28.5 -89t76.5 -34q42 0 67.5 16t56.5 51q36 -67 143 -67q163 0 163 142v6h-118v-5 q0 -47 -45 -47zM228 213v-65q0 -22 2 -33q-23 -38 -50 -38q-40 0 -40 50q0 41 30 63.5t58 22.5zM391 388q45 0 45 -47v-36h-90v36q0 47 45 47z"/>
<glyph glyph-name="ccedilla" horiz-adv-x="377" unicode="ç" d="M83 -87l17 56l-29 29q-64 38 -64 145v188q0 173 183 173q115 0 157 -67l61 -60q42 -42 42 -126v-37h-153l-54 54q-1 -5 -1 -17v-68h131v-6l77 -77v-37q0 -144 -128 -166l15 -15q22 -22 22 -64q0 -38 -22 -65t-70 -27t-74 26l-66 66q-44 27 -44 93h8l-1 1zM177 -10 q-29 2 -49 7l-20 -69l46 -10q10 10 29 10q21 0 21 -27q0 -21 -4 -30.5t-17 -9.5q-26 0 -26 30h-54q0 -15 5 -28.5t25 -26.5t54 -13q39 0 57 22t18 53q0 66 -57 66q-13 0 -24 -5t-16 -9l-5 -5z"/>
<glyph glyph-name="egrave" horiz-adv-x="380" unicode="è" d="M167 534l-158 186h193l5 -11l73 -72l95 -180h-45q10 -12 14 -19l63 -62q43 -43 43 -130v-137h-34l34 -34v-23q0 -159 -180 -159q-92 0 -137 45l-62 62q-64 42 -64 148v178q0 178 183 178h11l-30 30h-4zM190 86q-45 0 -45 47v73h208v120q0 158 -163 158t-163 -158v-178 q0 -158 163 -158t163 142v6h-118v-5q0 -47 -45 -47zM190 388q45 0 45 -47v-36h-90v36q0 47 45 47zM52 700l124 -146h91l-77 146h-138z"/>
<glyph glyph-name="eacute" horiz-adv-x="380" unicode="é" d="M380 720l-4 -5l78 -78l-141 -166q20 -15 31 -33l63 -62q43 -43 43 -130v-137h-34l34 -34v-23q0 -159 -180 -159q-92 0 -137 45l-62 62q-64 42 -64 148v178q0 148 125 172l-35 36h-8l98 186h193zM190 86q-45 0 -45 47v73h208v120q0 158 -163 158t-163 -158v-178 q0 -158 163 -158t163 142v6h-118v-5q0 -47 -45 -47zM190 388q45 0 45 -47v-36h-90v36q0 47 45 47zM213 554l124 146h-138l-77 -146h91z"/>
<glyph glyph-name="ecircumflex" horiz-adv-x="380" unicode="ê" d="M245 720l10 -15l68 -68l119 -180h-112q10 -12 14 -19l63 -62q43 -43 43 -130v-137h-34l34 -34v-23q0 -159 -180 -159q-92 0 -137 45l-62 62q-64 42 -64 148v178q0 111 70 152l-56 56h-9l123 186h110zM190 86q-45 0 -45 47v73h208v120q0 158 -163 158t-163 -158v-178 q0 -158 163 -158t163 142v6h-118v-5q0 -47 -45 -47zM190 388q45 0 45 -47v-36h-90v36q0 47 45 47zM331 554l-97 146h-88l-97 -146h101l40 69l40 -69h101z"/>
<glyph glyph-name="edieresis" horiz-adv-x="380" unicode="ë" d="M37 522v148h148v-6l12 -12v18h148v-6l77 -77v-142h-82l4 -7l63 -62q43 -43 43 -130v-137h-34l34 -34v-23q0 -159 -180 -159q-92 0 -137 45l-62 62q-64 42 -64 148v178q0 115 75 155l-39 41h-6zM190 86q-45 0 -45 47v73h208v120q0 158 -163 158t-163 -158v-178 q0 -158 163 -158t163 142v6h-118v-5q0 -47 -45 -47zM190 388q45 0 45 -47v-36h-90v36q0 47 45 47zM57 650v-108h108v108h-108zM217 650v-108h108v108h-108z"/>
<glyph glyph-name="igrave" horiz-adv-x="180" unicode="ì" d="M49 534l-158 186h193l5 -11l73 -72l95 -180h-57l46 -46v-508h-152l-77 77h-6v514h82l-40 40h-4zM31 474v-474h118v474h-118zM-66 700l124 -146h91l-77 146h-138z"/>
<glyph glyph-name="iacute" horiz-adv-x="180" unicode="í" d="M289 720l-4 -5l78 -78l-153 -180h-10l46 -46v-508h-152l-77 77h-6v514h35l-40 40h-8l98 186h193zM31 474v-474h118v474h-118zM122 554l124 146h-138l-77 -146h91z"/>
<glyph glyph-name="icircumflex" horiz-adv-x="180" unicode="î" d="M11 -20v477h-13l-77 77h-9l123 186h110l10 -15l68 -68l119 -180h-142l46 -46v-508h-152l-77 77h-6zM31 474v-474h118v474h-118zM231 554l-97 146h-88l-97 -146h101l40 69l40 -69h101z"/>
<glyph glyph-name="idieresis" horiz-adv-x="180" unicode="ï" d="M-64 522v148h148v-6l12 -12v18h148v-6l77 -77v-142h-109l34 -34v-508h-152l-77 77h-6v473l-69 69h-6zM31 474v-474h118v474h-118zM-44 650v-108h108v108h-108zM116 650v-108h108v108h-108z"/>
<glyph glyph-name="eth" horiz-adv-x="374" unicode="ð" d="M52 528l-27 76l79 30l-51 52h-1l-14 11l68 67q61 -23 117 -86l82 30l3 -10l75 -74l25 -70l-56 -21q87 -123 91 -276v-6q0 -1 0.5 -2.5t0.5 -2.5v-178q0 -175 -177 -175q-90 0 -134 44l-61 61q-65 41 -65 150v178q0 126 89 163l-40 40zM50 591l14 -37l98 37 q31 -51 47 -108q-3 0 -10.5 0.5t-11.5 0.5q-160 0 -160 -158v-178q0 -158 160 -158t160 158v178q0 2 -0.5 5.5t-0.5 5.5q-4 156 -102 284l63 24l-14 37l-76 -28q-25 28 -52 52t-41 34l-15 10l-42 -50q36 -24 73 -75zM187 388q38 0 41 -37q0 -2 0.5 -5.5t0.5 -4.5v-208 q0 -25 -10 -36t-32 -11t-32 11t-10 36v208q0 25 10 36t32 11z"/>
<glyph glyph-name="ntilde" d="M281 677l76 -79l-1 -1v-1l6 -5l72 -74q-7 -22 -25 -43.5t-44 -31.5l47 -46q30 -30 30 -105v-388h-152l-44 44v-44h-152l-77 77h-6v514h103l-18 17q-1 -1 -1 -3l-76 78q10 32 38 58.5t69 26.5q8 0 15 -0.5t12.5 -1.5t11.5 -3t9.5 -2.5t9 -3.5t7 -4t6.5 -5t6 -4.5t6 -4.5 l5 -4q15 -15 34 -15q14 0 33 54zM227 337v-337h118v371q0 57 -20.5 85t-68.5 28q-50 0 -107 -69v59h-118v-474h118v330q31 41 51 41q27 0 27 -34zM335 592l-46 47q-13 -36 -41 -36q-24 0 -51 24t-71 24q-34 0 -56.5 -18.5t-28.5 -40.5l46 -47q12 36 41 36q22 0 36 -12 t33 -24t53 -12t56.5 18.5t28.5 40.5z" unicode="ñ"/>
<glyph glyph-name="ograve" horiz-adv-x="374" unicode="ò" d="M154 534l-158 186h193l5 -11l73 -72l95 -180h-37q6 -6 16 -20l60 -60q43 -43 43 -131v-178q0 -175 -177 -175q-90 0 -134 44l-61 61q-65 41 -65 150v178q0 178 180 178h1l-30 30h-4zM347 148v178q0 158 -160 158t-160 -158v-178q0 -158 160 -158t160 158zM187 388 q22 0 32 -11t10 -36v-208q0 -25 -10 -36t-32 -11t-32 11t-10 36v208q0 25 10 36t32 11zM39 700l124 -146h91l-77 146h-138z"/>
<glyph glyph-name="oacute" horiz-adv-x="374" unicode="ó" d="M377 720l-4 -5l78 -78l-141 -167q20 -15 31 -33l60 -60q43 -43 43 -131v-178q0 -175 -177 -175q-90 0 -134 44l-61 61q-65 41 -65 150v178q0 148 122 172l-35 36h-8l98 186h193zM347 148v178q0 158 -160 158t-160 -158v-178q0 -158 160 -158t160 158zM187 388 q22 0 32 -11t10 -36v-208q0 -25 -10 -36t-32 -11t-32 11t-10 36v208q0 25 10 36t32 11zM210 554l124 146h-138l-77 -146h91z"/>
<glyph glyph-name="ocircumflex" horiz-adv-x="374" unicode="ô" d="M242 720l10 -15l68 -68l119 -180h-114q6 -6 16 -20l60 -60q43 -43 43 -131v-178q0 -175 -177 -175q-90 0 -134 44l-61 61q-65 41 -65 150v178q0 110 67 151l-56 57h-9l123 186h110zM347 148v178q0 158 -160 158t-160 -158v-178q0 -158 160 -158t160 158zM187 388 q22 0 32 -11t10 -36v-208q0 -25 -10 -36t-32 -11t-32 11t-10 36v208q0 25 10 36t32 11zM328 554l-97 146h-88l-97 -146h101l40 69l40 -69h101z"/>
<glyph glyph-name="otilde" horiz-adv-x="374" unicode="õ" d="M280 677l76 -79v-1l-1 -1l6 -5l72 -74q-9 -28 -33 -52t-59 -28l60 -60q43 -43 43 -131v-178q0 -175 -177 -175q-90 0 -134 44l-61 61q-65 41 -65 150v178q0 137 105 168l-17 17q-1 -1 -1 -3l-76 78q10 32 38 58.5t69 26.5q8 0 15 -0.5t12.5 -1.5t11.5 -3t9.5 -2.5t9 -3.5 t7 -4t6.5 -5t6 -4.5t6 -4.5l5 -4q15 -15 34 -15q14 0 33 54zM347 148v178q0 158 -160 158t-160 -158v-178q0 -158 160 -158t160 158zM187 388q22 0 32 -11t10 -36v-208q0 -25 -10 -36t-32 -11t-32 11t-10 36v208q0 25 10 36t32 11zM334 592l-46 47q-13 -36 -41 -36 q-24 0 -51 24t-71 24q-34 0 -56.5 -18.5t-28.5 -40.5l46 -47q12 36 41 36q22 0 36 -12t33 -24t53 -12t56.5 18.5t28.5 40.5z"/>
<glyph glyph-name="odieresis" horiz-adv-x="374" unicode="ö" d="M33 522v148h148v-6l12 -12v18h148v-6l77 -77v-142h-83l6 -8l60 -60q43 -43 43 -131v-178q0 -175 -177 -175q-90 0 -134 44l-61 61q-65 41 -65 150v178q0 114 72 154l-40 42h-6zM347 148v178q0 158 -160 158t-160 -158v-178q0 -158 160 -158t160 158zM187 388q22 0 32 -11 t10 -36v-208q0 -25 -10 -36t-32 -11t-32 11t-10 36v208q0 25 10 36t32 11zM53 650v-108h108v108h-108zM213 650v-108h108v108h-108z"/>
<glyph glyph-name="divide" horiz-adv-x="400" unicode="÷" d="M123 405v155h155v-6l77 -77v-100h43v-6l77 -77v-147h-155l35 -35v-149h-149l-77 77h-6v107h-38l-77 77h-6v153h155l-28 28h-6zM143 175v-115h115v115h-115zM143 540v-115h115v115h-115zM22 357v-113h356v113h-356z"/>
<glyph glyph-name="oslash" horiz-adv-x="374" unicode="ø" d="M91 -85l-73 73l-11 6l25 44q-25 43 -25 110v178q0 178 180 178q60 0 99 -20l14 23v-1l5 9l63 -35l-2 -3l78 -78l-26 -46q26 -38 26 -107v-178q0 -175 -177 -175q-60 0 -102 21l-17 -31zM347 148v178q0 68 -29 106l23 40l-28 16l-19 -32q-39 28 -107 28q-160 0 -160 -158 v-178q0 -68 29 -107l-23 -39l28 -16l18 32q40 -28 108 -28q160 0 160 158zM187 388q41 0 42 -46l-84 -146v145q0 25 10 36t32 11zM187 86q-22 0 -32 10.5t-10 34.5l84 146v-144q0 -25 -10 -36t-32 -11z"/>
<glyph glyph-name="ugrave" d="M157 534l-158 186h193l5 -11l73 -72l75 -143h20v-6l77 -77v-508h-152l-18 18q-38 -28 -72 -28q-51 0 -76 25l-66 66q-47 26 -47 119v391h158v-6l38 -38v38l-46 46h-4zM149 137v337h-118v-371q0 -57 20.5 -85t68.5 -28q47 0 107 68v-58h118v474h-118v-330q-31 -41 -51 -41 q-27 0 -27 34zM42 700l124 -146h91l-77 146h-138z" unicode="ù"/>
<glyph glyph-name="uacute" d="M200 457l7 -7v7h-7zM378 720l-4 -5l78 -78l-122 -143h35v-6l77 -77v-508h-152l-18 18q-38 -28 -72 -28q-51 0 -76 25l-66 66q-47 26 -47 119v391h124l-40 40h-8l98 186h193zM149 137v337h-118v-371q0 -57 20.5 -85t68.5 -28q47 0 107 68v-58h118v474h-118v-330 q-31 -41 -51 -41q-27 0 -27 34zM211 554l124 146h-138l-77 -146h91z" unicode="ú"/>
<glyph glyph-name="ucircumflex" d="M200 457l7 -7v7h-7zM243 720l10 -15l68 -68l119 -180h-44l46 -46v-508h-152l-18 18q-38 -28 -72 -28q-51 0 -76 25l-66 66q-47 26 -47 119v391h48l-40 40h-9l123 186h110zM149 137v337h-118v-371q0 -57 20.5 -85t68.5 -28q47 0 107 68v-58h118v474h-118v-330 q-31 -41 -51 -41q-27 0 -27 34zM329 554l-97 146h-88l-97 -146h101l40 69l40 -69h101z" unicode="û"/>
<glyph glyph-name="udieresis" d="M34 522v148h148v-6l12 -12v18h148v-6l77 -77v-142h-11l34 -34v-508h-152l-18 18q-38 -28 -72 -28q-51 0 -76 25l-66 66q-47 26 -47 119v391h57l-28 28h-6zM149 137v337h-118v-371q0 -57 20.5 -85t68.5 -28q47 0 107 68v-58h118v474h-118v-330q-31 -41 -51 -41 q-27 0 -27 34zM54 650v-108h108v108h-108zM214 650v-108h108v108h-108z" unicode="ü"/>
<glyph glyph-name="yacute" horiz-adv-x="390" unicode="ý" d="M408 494l-2 -6l78 -77l-176 -637q-21 -60 -64 -83.5t-108 -23.5q-13 0 -29.5 3.5t-26.5 7.5l-10 4l-75 75l-8 3v157q40 -29 63 -29q32 0 42 35l23 79q-21 80 -66.5 245.5t-67.5 246.5h168l-40 40h-8l98 186h193l-4 -5l78 -78l-122 -143h64zM212 -141l170 615h-127 l-62 -292l-61 292h-125l128 -473l-24 -84q-14 -49 -61 -49q-13 0 -23.5 2.5t-14.5 5.5l-5 2v-104q25 -10 49 -10q124 0 156 95zM225 554l124 146h-138l-77 -146h91zM149 494l1 -8l71 -71l9 42h-44z"/>
<glyph glyph-name="thorn" horiz-adv-x="372" unicode="þ" d="M11 -246v966h158v-6l77 -77v-133q66 -2 96 -51l63 -62q37 -37 37 -120v-208q0 -84 -41.5 -127t-102.5 -43q-28 0 -52 12v-228h-152l-77 77h-6zM31 700v-926h118v245q31 -29 69 -29q54 0 90.5 38.5t36.5 114.5v208q0 133 -103 133q-64 0 -93 -64v280h-118zM186 378 q41 0 41 -51v-190q0 -51 -41 -51q-22 0 -37 20v254q20 18 37 18z"/>
<glyph glyph-name="OE" horiz-adv-x="546" unicode="Œ" d="M281 720h262v-6l77 -77v-150h-150v-38h29v-6l77 -77v-150h-106v-80h77v-6l77 -77v-150h-264q-35 -10 -75 -10q-94 0 -141 47l-60 60q-67 42 -67 148v404q0 178 188 178q45 0 76 -10zM523 700h-246q-33 10 -72 10q-84 0 -126 -41t-42 -117v-404q0 -76 42 -117t126 -41 q39 0 72 10h250v116h-154v197h106v116h-106v155h150v116zM205 594q42 0 42 -37v-419q-3 -32 -42 -32q-42 0 -42 37v414q0 37 42 37z"/>
<glyph glyph-name="oe" horiz-adv-x="582" unicode="œ" d="M133 -63l-61 61q-65 41 -65 150v178q0 178 180 178q58 0 102 -22q46 22 103 22q111 0 154 -66l63 -62q43 -43 43 -130v-137h-34l34 -34v-23q0 -159 -180 -159q-58 0 -103 21q-46 -21 -102 -21q-90 0 -134 44zM392 86q-45 0 -45 47v73h208v120q0 158 -163 158 q-64 0 -103 -25q-39 25 -102 25q-160 0 -160 -158v-178q0 -158 160 -158q62 0 102 24q40 -24 103 -24q163 0 163 142v6h-118v-5q0 -47 -45 -47zM187 388q22 0 32 -11t10 -36v-193v-8v-7q0 -25 -10 -36t-32 -11t-32 11t-10 36v208q0 25 10 36t32 11zM392 388q45 0 45 -47v-36 h-90v21v7v8q0 47 45 47z"/>
<glyph glyph-name="Scaron" horiz-adv-x="388" unicode="Š" d="M374 946l-4 -6l78 -77l-116 -176q10 -10 22 -27l59 -58q44 -44 44 -129v-86h-160l-46 46v-3q0 -16 4 -27l83 -77q11 -11 19 -24l1 -1l58 -57q41 -40 41 -114v-62q0 -175 -185 -175q-92 0 -137 45l-60 60q-67 42 -67 149v89h166v-6l40 -40q0 24 -14 41l-68 65l-13 13 l-69 65q-42 41 -42 116v62q0 168 167 177l-29 31h-5l-123 186h150l8 -13l25 -25l23 38h150zM154 510v47q0 37 42 37q38 0 38 -37v-73h126v69q0 157 -164 157q-84 0 -126 -41t-42 -117v-62q0 -67 36 -102l138 -129q32 -29 32 -69v-47q0 -37 -42 -37q-38 0 -38 37v73h-126v-69 q0 -157 164 -157q84 0 126 41t42 117v62q0 67 -36 102l-138 129q-32 29 -32 69zM240 780l97 146h-101l-40 -69l-40 69h-101l97 -146h88z"/>
<glyph glyph-name="scaron" horiz-adv-x="334" unicode="š" d="M346 720l-4 -6l78 -77l-119 -180h-7l13 -16l63 -63q47 -47 47 -141h-128q21 -15 34 -35l61 -61q33 -33 33 -97q0 -61 -42 -106t-128 -45q-90 0 -130 40l-62 62q-36 23 -48.5 63.5t-12.5 101.5h130q-7 6 -13 13l-58 58l-3 2q-56 40 -56 117q0 67 40.5 108t113.5 45l-30 31 h-5l-123 186h150l8 -13l25 -25l23 38h150zM132 344v6q0 38 35 38t35 -38v-16h118q0 67 -36.5 108.5t-116.5 41.5q-73 0 -113 -36t-40 -98q0 -67 48 -101l104 -71q22 -15 29 -25t7 -23v-6q0 -38 -35 -38t-35 38v16h-118q0 -35 5 -58.5t20 -46.5t47 -34t81 -11q77 0 115 40 t38 94q0 67 -43 97l-116 80q-29 22 -29 43zM212 554l97 146h-101l-40 -69l-40 69h-101l97 -146h88z"/>
<glyph glyph-name="Ydieresis" horiz-adv-x="364" unicode="Ÿ" d="M174 671l34 -34l2 -11l11 45h-47zM28 748v148h148v-6l12 -12v18h148v-6l77 -77v-113l63 -63l-134 -485v-249h-160l-77 77h-6v251q-121 438 -135 489h98l-28 28h-6zM250 700l-68 -272l-68 272h-124l129 -466v-234h126v234l129 466h-124zM48 876v-108h108v108h-108z M208 876v-108h108v108h-108z"/>
<glyph glyph-name="circumflex" horiz-adv-x="372" unicode="ˆ" d="M241 720l10 -15l68 -68l119 -180h-142l-38 37l-22 -37h-142l-77 77h-9l123 186h110zM327 554l-97 146h-88l-97 -146h101l40 69l40 -69h101z"/>
<glyph glyph-name="tilde" horiz-adv-x="366" unicode="˜" d="M276 707l76 -79v-1l-1 -1l6 -5l72 -74q-9 -30 -36.5 -55.5t-67.5 -25.5q-53 0 -86 31q-1 0 -1 0.5t-1 0.5l-1 2q-16 14 -33 14t-34 -50l-78 77q-1 -1 -1 -3l-76 78q10 32 38 58.5t69 26.5q8 0 15 -0.5t12.5 -1.5t11.5 -3t9.5 -2.5t9 -3.5t7 -4t6.5 -5t6 -4.5t6 -4.5l5 -4 q15 -15 34 -15q14 0 33 54zM330 622l-46 47q-13 -36 -41 -36q-24 0 -51 24t-71 24q-34 0 -56.5 -18.5t-28.5 -40.5l46 -47q12 36 41 36q22 0 36 -12t33 -24t53 -12t56.5 18.5t28.5 40.5z"/>
<glyph glyph-name="pi" horiz-adv-x="436" unicode="π" d="M117 -97l-77 77h-6v323l-39 39h-6v152h443v-6l77 -77v-146h-45v-170l54 -54v-133q-32 -15 -73 -15q-63 0 -97 34l-63 63q-6 3 -16 11v-98h-152zM249 362v-252q0 -56 29 -88t87 -32q34 0 56 10v94q-16 -8 -26 -8q-17 0 -22.5 12t-5.5 41v223h45v112h-403v-112h45v-362h118 v362h77z"/>
<glyph glyph-name="endash" horiz-adv-x="446" unicode="–" d="M25 226v153h396v-6l77 -77v-147h-390l-77 77h-6zM45 359v-113h356v113h-356z"/>
<glyph glyph-name="emdash" horiz-adv-x="626" unicode="—" d="M25 226v153h576v-6l77 -77v-147h-570l-77 77h-6zM45 359v-113h536v113h-536z"/>
<glyph glyph-name="quoteleft" horiz-adv-x="175" unicode="‘" d="M172 720l-2 -6l78 -77l-38 -120l32 -31v-149h-149l-77 77h-6v143l98 163h64zM99 549l46 151h-25l-90 -151v-115h115v115h-46z"/>
<glyph glyph-name="quotesinglbase" horiz-adv-x="175" unicode="‚" d="M3 -171l39 125l-26 26h-6v155h155v-6l77 -77v-138l-97 -162h-58l-77 77h-7zM76 0l-46 -151h25l90 151v115h-115v-115h46z"/>
<glyph glyph-name="quotedblleft" horiz-adv-x="340" unicode="“" d="M337 720l-2 -6l78 -77l-38 -120l32 -31v-149h-149l-16 16v-16h-149l-77 77h-6v143l98 163h64l-2 -6l62 -62l41 68h64zM99 549l46 151h-25l-90 -151v-115h115v115h-46zM264 549l46 151h-25l-90 -151v-115h115v115h-46z"/>
<glyph glyph-name="quotedblright" horiz-adv-x="340" unicode="”" d="M3 414l38 124l-25 27h-6v155h155v-6l10 -10v16h155v-6l77 -77v-138l-97 -162h-58l-67 67l-40 -67h-58l-77 77h-7zM241 585l-46 -151h25l90 151v115h-115v-115h46zM76 585l-46 -151h25l90 151v115h-115v-115h46z"/>
<glyph glyph-name="dagger" horiz-adv-x="471" unicode="†" d="M25 337v159l151 -19q-1 15 -4 46.5t-4 47.5t-5.5 70t-6.5 79h159l-1 -6l78 -77l-13 -150l67 9v-6l77 -77v-153l-148 17l28 -141l-43 -459h-89l-77 77h-6l-43 463l9 47l-46 -4l-78 77h-5zM45 474v-115l152 18l-32 -162l42 -441h57l42 441l-32 162l152 -18v115l-152 -19 l20 245h-117l20 -245z"/>
<glyph glyph-name="daggerdbl" horiz-adv-x="471" unicode="‡" d="M392 637l-13 -150l67 9v-6l77 -77v-153l-147 18q27 -108 30 -121l-6 -26l46 6v-6l77 -77v-153l-151 19q2 -25 9.5 -113t10.5 -130h-153l-77 77h-6l12 155l-60 -8l-78 78l-5 -1v159l145 -17l-28 117l6 27l-40 -4l-78 77h-5v159l151 -19q-1 15 -4 46.5t-4 47.5t-5.5 70 t-6.5 79h159l-1 -6zM274 96l34 141l-34 141l152 -19v115l-152 -19l20 245h-117l20 -245l-152 19v-115l151 19l-33 -141l33 -141l-151 19v-115l152 19l-20 -245h117l-20 245l152 -19v115z"/>
<glyph glyph-name="ellipsis" horiz-adv-x="547" unicode="…" d="M11 -20v155h155v-6l30 -30v36h155v-6l30 -30v36h155v-6l77 -77v-149h-149l-36 36v-36h-149l-36 36v-36h-149l-77 77h-6zM31 115v-115h115v115h-115zM216 115v-115h115v115h-115zM401 115v-115h115v115h-115z"/>
<glyph glyph-name="perthousand" horiz-adv-x="705" unicode="‰" d="M286 616q9 -11 16 -23l65 127h123l-3 -6l78 -77l-177 -342q48 -11 69 -48l18 -18q25 69 111 69q72 0 102 -52l63 -62q31 -31 31 -87v-86q0 -56 -30.5 -87t-85.5 -31q-54 0 -85 31l-37 37q-25 -68 -108 -68q-54 0 -85 31l-62 62q-25 15 -38 39l-63 -122h-116l-77 77h-8 l179 348q-31 8 -50 28l-62 62q-52 29 -52 105v86q0 57 31.5 89t87.5 32q72 0 102 -52zM20 0h78l359 700h-78zM220 523v86q0 47 -26.5 74t-72.5 27t-72.5 -27t-26.5 -74v-86q0 -47 26.5 -74t72.5 -27t72.5 27t26.5 74zM121 645q11 0 18.5 -8t7.5 -21v-100q0 -13 -7.5 -21 t-18.5 -8t-18.5 8t-7.5 21v100q0 13 7.5 21t18.5 8zM455 91v86q0 47 -26.5 74t-72.5 27t-72.5 -27t-26.5 -74v-86q0 -47 26.5 -74t72.5 -27t72.5 27t26.5 74zM356 213q11 0 18.5 -8t7.5 -21v-100q0 -13 -7.5 -21t-18.5 -8t-18.5 8t-7.5 21v100q0 13 7.5 21t18.5 8zM685 91 v86q0 47 -26.5 74t-72.5 27t-72.5 -27t-26.5 -74v-86q0 -47 26.5 -74t72.5 -27t72.5 27t26.5 74zM586 213q11 0 18.5 -8t7.5 -21v-100q0 -13 -7.5 -21t-18.5 -8t-18.5 8t-7.5 21v100q0 13 7.5 21t18.5 8z"/>
<glyph glyph-name="guilsinglleft" horiz-adv-x="265" unicode="‹" d="M137 458l100 -16h1l-1 -1l80 -79l-121 -205l145 -218h-122l-77 77h-5l-122 186v70zM230 438h-82l-113 -172v-58l113 -172h82l-134 201z"/>
<glyph glyph-name="guilsinglright" horiz-adv-x="265" unicode="›" d="M-1 458h129l9 -15l69 -68l121 -185v-66l-121 -185h-122l-77 77h-8l146 221zM117 438h-82l134 -201l-134 -201h82l113 172v58z"/>
<glyph glyph-name="fraction" horiz-adv-x="407" unicode="⁄" d="M37 -97l-77 77h-8l380 740h123l-3 -6l78 -77l-377 -734h-116zM-15 0h78l359 700h-78z"/>
<glyph glyph-name="Euro" horiz-adv-x="395" unicode="€" d="M-4 205l31 133l-24 24h-7l31 133h36q16 127 62.5 181t119.5 54q67 0 131 -52l-2 -3l78 -77l-70 -127l-11 10q-25 24 -46 24q-7 0 -12 -10h15l-2 -6l78 -77l-30 -127h-38l30 -30l-30 -126l3 -3l43 -42l97 -112q-56 -79 -154 -79q-64 0 -105 41l-58 58q-59 35 -85 139 l-74 74h-7zM44 318l-22 -93h59q13 -128 55 -181.5t109 -53.5q88 0 132 61l-73 85q-26 -38 -59 -38q-36 0 -43 127h40l22 93h-65v32v32h81l22 93h-100q7 127 43 127q30 0 53 -23l52 95q-44 36 -105 36q-67 0 -109 -53.5t-55 -181.5h-37l-22 -93h54v-32v-32h-32z"/>
<glyph glyph-name="trademark" horiz-adv-x="580" unicode="™" d="M545 720v-6l77 -77v-367h-105l-16 15l-3 -15h-58l-19 19v-19h-104l-42 42v-42h-104l-77 77h-6v221l-47 47h-6v105h343l1 -8l17 -17l5 25h144zM231 700h-176v-65h53v-268h70v268h53v65zM525 367v333h-107l-29 -146l-28 146h-107v-333h70v213l50 -213h30l50 213v-213h71z "/>
<glyph glyph-name="partialdiff" horiz-adv-x="448" unicode="∂" d="M271 497q-8 -3 -15 -10q3 -1 8 -3t6 -3q0 3 0.5 8.5t0.5 7.5zM158 540l-87 119q34 37 65.5 54t83.5 17q112 0 167 -81l57 -56q62 -62 62 -186q0 -16 -2 -48l-21 -239q-12 -130 -66.5 -178.5t-143.5 -48.5q-87 0 -127 40l-61 61q-69 41 -69 175q0 35 2 51q0 11 1 14 q0 2 0.5 5.5t0.5 4.5q6 71 24.5 121.5t47 75.5t57 36t62.5 13l-51 53q-2 -2 -2 -3zM97 658l61 -83q17 25 53 25q35 0 57.5 -26t22.5 -77q0 -15 -1 -24l-4 -39q-13 37 -56 37q-33 0 -60.5 -8.5t-56.5 -30.5t-48 -70t-25 -119l-2 -25q-2 -18 -2 -49q0 -58 13.5 -96t38.5 -55 t48.5 -22.5t56.5 -5.5q82 0 132.5 45.5t60.5 166.5l21 239q2 32 2 46q0 67 -18.5 114t-49.5 69t-60 31t-61 9q-47 0 -72.5 -12.5t-50.5 -39.5zM202 97q-28 0 -38.5 12.5t-10.5 41.5q0 8 2 34l8 91q4 50 16 69t46 19q20 0 32.5 -12.5t15.5 -25.5l3 -12l-11 -129 q-4 -49 -16.5 -68.5t-46.5 -19.5z"/>
<glyph glyph-name="product" horiz-adv-x="546" unicode="∏" d="M9 564v156h528v-6l77 -77v-150h-70v-584h-160l-62 62v-62h-160l-77 77h-6v520l-64 64h-6zM29 700v-116h70v-584h126v584h96v-584h126v584h70v116h-488z"/>
<glyph glyph-name="summation" horiz-adv-x="404" unicode="∑" d="M5 -20v144l136 226l-68 112q-46 76 -68 114v144h398v-6l77 -77v-150h-219l130 -217l-80 -134h92v-6l77 -77v-150h-392l-77 77h-6zM25 116v-116h358v116h-232l140 234l-140 234h232v116h-358v-116l140 -234z"/>
<glyph glyph-name="minus" horiz-adv-x="400" unicode="−" d="M2 226v153h396v-6l77 -77v-147h-390l-77 77h-6zM22 359v-113h356v113h-356z"/>
<glyph glyph-name="radical" horiz-adv-x="400" unicode="√" d="M291 720h141l-2 -6l78 -77l-165 -734h-126l-77 77h-5l-62 219h-10l-77 77h-6v136h185l2 -8l46 -46l26 120q32 146 52 242zM406 700h-98l-110 -508l-50 200h-148v-96h67l83 -296h99z"/>
<glyph glyph-name="infinity" horiz-adv-x="626" unicode="∞" d="M147 107l-57 57q-70 44 -70 130q0 64 43.5 109t108.5 45q80 0 141 -71q71 71 141 71q82 0 127 -68l58 -58q44 -44 44 -108q0 -63 -42.5 -106.5t-106.5 -43.5q-73 0 -126 55l-16 15q-70 -70 -140 -70q-62 0 -105 43zM586 294q0 56 -38 95t-94 39q-76 0 -141 -82 q-65 82 -141 82q-56 0 -94 -39t-38 -95t37.5 -94.5t94.5 -38.5q77 0 141 81q64 -81 141 -81q57 0 94.5 38.5t37.5 94.5zM109 294q0 29 18 49t45 20q26 0 52.5 -17.5t39.5 -34.5l14 -17q-5 -8 -13.5 -19t-36 -30t-56.5 -19q-27 0 -45 19.5t-18 48.5zM517 294q0 -29 -18 -48.5 t-45 -19.5q-29 0 -55.5 17t-38.5 34l-12 17q5 8 15 19.5t37.5 30.5t53.5 19q27 0 45 -20t18 -49z"/>
<glyph glyph-name="approxequal" horiz-adv-x="597" unicode="≈" d="M276 251q-13 0 -22 -10q44 -11 83 -57l9 -11l10 -10q17 -15 44 -15q11 0 20 9q-37 12 -63 39l-46 46q-16 9 -35 9zM456 432l120 -61l-2 -5l78 -77q-10 -32 -34 -66t-59 -53l17 -9l-2 -5l78 -77q-15 -49 -59 -94t-110 -45q-80 0 -126 46l-46 46q-16 9 -35 9q-31 0 -58 -73 l-114 59l-72 72l-12 6q9 32 34.5 67.5t63.5 56.5l-14 8l-72 72l-12 6q15 51 60.5 97.5t112.5 46.5q40 0 70 -11t43.5 -22.5t30.5 -31.5l9 -11l10 -10q17 -15 44 -15q29 0 56 74zM552 360l-84 44q-24 -66 -68 -66q-30 0 -51.5 16t-33.5 34.5t-43 34.5t-79 16 q-60 0 -98.5 -36.5t-50.5 -76.5l84 -44q24 66 68 66q30 0 51.5 -16t33.5 -34.5t43 -34.5t79 -16q60 0 98.5 36.5t50.5 76.5zM552 150l-84 44q-24 -66 -68 -66q-30 0 -51.5 16t-33.5 34.5t-43 34.5t-79 16q-60 0 -98.5 -36.5t-50.5 -76.5l84 -44q24 66 68 66q30 0 51.5 -16 t33.5 -34.5t43 -34.5t79 -16q60 0 98.5 36.5t50.5 76.5z"/>
<glyph glyph-name="notequal" horiz-adv-x="400" unicode="≠" d="M42 316v133h176q6 15 26 63t31 73h93l-3 -6l78 -77l-43 -102l35 -34v-127h-53l53 -53v-127h-177l-56 -136h-86l-77 77h-8l45 108l-28 28h-6v133h53l-47 47h-6zM62 429v-93h131l-36 -87h-95v-93h56l-56 -136h48l56 136h172v93h-133l36 87h97v93h-58l57 136h-48l-57 -136 h-170z"/>
<glyph glyph-name="lessequal" horiz-adv-x="400" unicode="≤" d="M12 -20v133h352l-242 156l-69 69l-14 9v120l323 208l-1 -9l78 -77l-4 -150l-142 -96l69 -44v-5l77 -77v-152l-25 16l51 -51v-127h-370l-77 77h-6zM342 526v112l-283 -182v-98l283 -182v112l-185 119zM32 93v-93h336v93h-336z"/>
<glyph glyph-name="greaterequal" horiz-adv-x="400" unicode="≥" d="M388 113v-6l77 -77v-127h-370l-77 77h-6v133h61l-30 29l-5 -3v160l149 96l-66 42l-69 69l-14 9v160l323 -208v-5l77 -77v-116l-243 -156h193zM58 638v-112l185 -119l-185 -119v-112l283 182v98zM368 0v93h-336v-93h336z"/>
<glyph glyph-name="lozenge" horiz-adv-x="421" unicode="◊" d="M223 -97l-77 77h-5l-127 370l127 370h139l2 -8l76 -75l126 -367l-126 -367h-135zM266 0l120 350l-120 350h-111l-120 -350l120 -350h111zM275 350l-65 -188l-64 188l64 188z"/>
</font>
</defs>
</svg>
